<?xml version="1.0" encoding="UTF-8" standalone="no"?>
<!DOCTYPE svg PUBLIC "-//W3C//DTD SVG 1.1//EN"
 "http://www.w3.org/Graphics/SVG/1.1/DTD/svg11.dtd">
<!-- Generated by graphviz version 2.38.0 (20140413.2041)
 -->
<!-- Title: snakemake_dag Pages: 1 -->
<svg width="1452pt" height="409pt"
 viewBox="0.00 0.00 1452.00 409.00" xmlns="http://www.w3.org/2000/svg" xmlns:xlink="http://www.w3.org/1999/xlink">
<g id="graph0" class="graph" transform="scale(1 1) rotate(0) translate(4 405)">
<title>snakemake_dag</title>
<polygon fill="white" stroke="none" points="-4,4 -4,-405 1448,-405 1448,4 -4,4"/>
<!-- 0 -->
<g id="node1" class="node"><title>0</title>
<path fill="none" stroke="#56d86b" stroke-width="2" stroke-dasharray="5,2" d="M503,-108C503,-108 261,-108 261,-108 255,-108 249,-102 249,-96 249,-96 249,-84 249,-84 249,-78 255,-72 261,-72 261,-72 503,-72 503,-72 509,-72 515,-78 515,-84 515,-84 515,-96 515,-96 515,-102 509,-108 503,-108"/>
<text text-anchor="middle" x="382" y="-93" font-family="sans" font-size="10.00">build_salmon_index</text>
<text text-anchor="middle" x="382" y="-82" font-family="sans" font-size="10.00">transcriptome_build: hg38.analysisSet_gencode.v25</text>
</g>
<!-- 8 -->
<g id="node9" class="node"><title>8</title>
<path fill="none" stroke="#56b1d8" stroke-width="2" d="M882,-36C882,-36 852,-36 852,-36 846,-36 840,-30 840,-24 840,-24 840,-12 840,-12 840,-6 846,-0 852,-0 852,-0 882,-0 882,-0 888,-0 894,-6 894,-12 894,-12 894,-24 894,-24 894,-30 888,-36 882,-36"/>
<text text-anchor="middle" x="867" y="-15.5" font-family="sans" font-size="10.00">all</text>
</g>
<!-- 0&#45;&gt;8 -->
<g id="edge15" class="edge"><title>0&#45;&gt;8</title>
<path fill="none" stroke="grey" stroke-width="2" d="M500.024,-71.9656C607.505,-56.4529 759.745,-34.4801 829.479,-24.4154"/>
<polygon fill="grey" stroke="grey" stroke-width="2" points="830.152,-27.8547 839.549,-22.962 829.152,-20.9265 830.152,-27.8547"/>
</g>
<!-- 1 -->
<g id="node2" class="node"><title>1</title>
<path fill="none" stroke="#d88556" stroke-width="2" stroke-dasharray="5,2" d="M160,-108C160,-108 12,-108 12,-108 6,-108 0,-102 0,-96 0,-96 0,-84 0,-84 0,-78 6,-72 12,-72 12,-72 160,-72 160,-72 166,-72 172,-78 172,-84 172,-84 172,-96 172,-96 172,-102 166,-108 160,-108"/>
<text text-anchor="middle" x="86" y="-93" font-family="sans" font-size="10.00">build_bwa_index</text>
<text text-anchor="middle" x="86" y="-82" font-family="sans" font-size="10.00">genome_build: hg38.analysisSet</text>
</g>
<!-- 1&#45;&gt;8 -->
<g id="edge14" class="edge"><title>1&#45;&gt;8</title>
<path fill="none" stroke="grey" stroke-width="2" d="M172.058,-74.7211C179.134,-73.7318 186.182,-72.8084 193,-72 435.036,-43.3022 727.878,-26.2891 829.858,-20.8864"/>
<polygon fill="grey" stroke="grey" stroke-width="2" points="830.154,-24.3758 839.957,-20.3565 829.787,-17.3854 830.154,-24.3758"/>
</g>
<!-- 2 -->
<g id="node3" class="node"><title>2</title>
<path fill="none" stroke="#566bd8" stroke-width="2" stroke-dasharray="5,2" d="M803.5,-329C803.5,-329 672.5,-329 672.5,-329 666.5,-329 660.5,-323 660.5,-317 660.5,-317 660.5,-305 660.5,-305 660.5,-299 666.5,-293 672.5,-293 672.5,-293 803.5,-293 803.5,-293 809.5,-293 815.5,-299 815.5,-305 815.5,-305 815.5,-317 815.5,-317 815.5,-323 809.5,-329 803.5,-329"/>
<text text-anchor="middle" x="738" y="-314" font-family="sans" font-size="10.00">twoBit_to_fasta</text>
<text text-anchor="middle" x="738" y="-303" font-family="sans" font-size="10.00">basename: hg38.analysisSet</text>
</g>
<!-- 2&#45;&gt;1 -->
<g id="edge2" class="edge"><title>2&#45;&gt;1</title>
<path fill="none" stroke="grey" stroke-width="2" d="M660.187,-306.423C569.692,-300.983 416.319,-287.786 288,-257 198.164,-235.446 148.595,-258.786 93,-185 78.7439,-166.079 78.3727,-138.498 80.7417,-118.102"/>
<polygon fill="grey" stroke="grey" stroke-width="2" points="84.2101,-118.572 82.1713,-108.175 77.2816,-117.574 84.2101,-118.572"/>
</g>
<!-- 3 -->
<g id="node4" class="node"><title>3</title>
<path fill="none" stroke="#56d8c9" stroke-width="2" stroke-dasharray="5,2" d="M262,-185C262,-185 114,-185 114,-185 108,-185 102,-179 102,-173 102,-173 102,-156 102,-156 102,-150 108,-144 114,-144 114,-144 262,-144 262,-144 268,-144 274,-150 274,-156 274,-156 274,-173 274,-173 274,-179 268,-185 262,-185"/>
<text text-anchor="middle" x="188" y="-173" font-family="sans" font-size="10.00">build_star_index</text>
<text text-anchor="middle" x="188" y="-162" font-family="sans" font-size="10.00">genome_build: hg38.analysisSet</text>
<text text-anchor="middle" x="188" y="-151" font-family="sans" font-size="10.00">transcriptome: gencode.v25</text>
</g>
<!-- 2&#45;&gt;3 -->
<g id="edge5" class="edge"><title>2&#45;&gt;3</title>
<path fill="none" stroke="grey" stroke-width="2" d="M660.213,-305.538C585.856,-299.666 471.293,-286.39 376,-257 323.078,-240.678 266.461,-211.311 229.351,-190.246"/>
<polygon fill="grey" stroke="grey" stroke-width="2" points="230.766,-187.023 220.35,-185.082 227.282,-193.094 230.766,-187.023"/>
</g>
<!-- 4 -->
<g id="node5" class="node"><title>4</title>
<path fill="none" stroke="#56c9d8" stroke-width="2" stroke-dasharray="5,2" d="M1238,-108C1238,-108 1090,-108 1090,-108 1084,-108 1078,-102 1078,-96 1078,-96 1078,-84 1078,-84 1078,-78 1084,-72 1090,-72 1090,-72 1238,-72 1238,-72 1244,-72 1250,-78 1250,-84 1250,-84 1250,-96 1250,-96 1250,-102 1244,-108 1238,-108"/>
<text text-anchor="middle" x="1164" y="-93" font-family="sans" font-size="10.00">build_bbmap_index</text>
<text text-anchor="middle" x="1164" y="-82" font-family="sans" font-size="10.00">genome_build: hg38.analysisSet</text>
</g>
<!-- 2&#45;&gt;4 -->
<g id="edge6" class="edge"><title>2&#45;&gt;4</title>
<path fill="none" stroke="grey" stroke-width="2" d="M815.808,-303.456C910.977,-294.717 1066.07,-277.884 1120,-257 1172.77,-236.566 1198.63,-235.062 1225,-185 1233.49,-168.878 1232.56,-160.581 1225,-144 1219.77,-132.531 1210.7,-122.584 1201.13,-114.504"/>
<polygon fill="grey" stroke="grey" stroke-width="2" points="1203.07,-111.58 1193.04,-108.163 1198.75,-117.088 1203.07,-111.58"/>
</g>
<!-- 6 -->
<g id="node7" class="node"><title>6</title>
<path fill="none" stroke="#56d8c9" stroke-width="2" stroke-dasharray="5,2" d="M1204,-185C1204,-185 1056,-185 1056,-185 1050,-185 1044,-179 1044,-173 1044,-173 1044,-156 1044,-156 1044,-150 1050,-144 1056,-144 1056,-144 1204,-144 1204,-144 1210,-144 1216,-150 1216,-156 1216,-156 1216,-173 1216,-173 1216,-179 1210,-185 1204,-185"/>
<text text-anchor="middle" x="1130" y="-173" font-family="sans" font-size="10.00">build_star_index</text>
<text text-anchor="middle" x="1130" y="-162" font-family="sans" font-size="10.00">genome_build: hg38.analysisSet</text>
<text text-anchor="middle" x="1130" y="-151" font-family="sans" font-size="10.00">transcriptome: knownGene</text>
</g>
<!-- 2&#45;&gt;6 -->
<g id="edge10" class="edge"><title>2&#45;&gt;6</title>
<path fill="none" stroke="grey" stroke-width="2" d="M815.521,-302.593C913.648,-292.588 1072.57,-274.041 1094,-257 1112.86,-242.002 1121.87,-215.725 1126.15,-195.168"/>
<polygon fill="grey" stroke="grey" stroke-width="2" points="1129.6,-195.785 1127.94,-185.32 1122.71,-194.531 1129.6,-195.785"/>
</g>
<!-- 9 -->
<g id="node10" class="node"><title>9</title>
<path fill="none" stroke="#d8b456" stroke-width="2" stroke-dasharray="5,2" d="M1432,-257C1432,-257 1284,-257 1284,-257 1278,-257 1272,-251 1272,-245 1272,-245 1272,-233 1272,-233 1272,-227 1278,-221 1284,-221 1284,-221 1432,-221 1432,-221 1438,-221 1444,-227 1444,-233 1444,-233 1444,-245 1444,-245 1444,-251 1438,-257 1432,-257"/>
<text text-anchor="middle" x="1358" y="-242" font-family="sans" font-size="10.00">build_bowtie1_index</text>
<text text-anchor="middle" x="1358" y="-231" font-family="sans" font-size="10.00">genome_build: hg38.analysisSet</text>
</g>
<!-- 2&#45;&gt;9 -->
<g id="edge24" class="edge"><title>2&#45;&gt;9</title>
<path fill="none" stroke="grey" stroke-width="2" d="M815.719,-303.71C917.54,-295.097 1101.54,-278.248 1258,-257 1259.28,-256.827 1260.56,-256.649 1261.85,-256.469"/>
<polygon fill="grey" stroke="grey" stroke-width="2" points="1262.48,-259.915 1271.87,-255.017 1261.47,-252.987 1262.48,-259.915"/>
</g>
<!-- 16 -->
<g id="node17" class="node"><title>16</title>
<path fill="none" stroke="#56d882" stroke-width="2" stroke-dasharray="5,2" d="M926,-257C926,-257 778,-257 778,-257 772,-257 766,-251 766,-245 766,-245 766,-233 766,-233 766,-227 772,-221 778,-221 778,-221 926,-221 926,-221 932,-221 938,-227 938,-233 938,-233 938,-245 938,-245 938,-251 932,-257 926,-257"/>
<text text-anchor="middle" x="852" y="-242" font-family="sans" font-size="10.00">build_bowtie2_index</text>
<text text-anchor="middle" x="852" y="-231" font-family="sans" font-size="10.00">genome_build: hg38.analysisSet</text>
</g>
<!-- 2&#45;&gt;16 -->
<g id="edge28" class="edge"><title>2&#45;&gt;16</title>
<path fill="none" stroke="grey" stroke-width="2" d="M765.888,-292.876C780.793,-283.724 799.329,-272.342 815.382,-262.485"/>
<polygon fill="grey" stroke="grey" stroke-width="2" points="817.315,-265.405 824.005,-257.19 813.652,-259.44 817.315,-265.405"/>
</g>
<!-- 17 -->
<g id="node18" class="node"><title>17</title>
<path fill="none" stroke="#56d89a" stroke-width="2" stroke-dasharray="5,2" d="M452,-185C452,-185 304,-185 304,-185 298,-185 292,-179 292,-173 292,-173 292,-156 292,-156 292,-150 298,-144 304,-144 304,-144 452,-144 452,-144 458,-144 464,-150 464,-156 464,-156 464,-173 464,-173 464,-179 458,-185 452,-185"/>
<text text-anchor="middle" x="378" y="-173" font-family="sans" font-size="10.00">extract_transcript_seqs</text>
<text text-anchor="middle" x="378" y="-162" font-family="sans" font-size="10.00">genome_build: hg38.analysisSet</text>
<text text-anchor="middle" x="378" y="-151" font-family="sans" font-size="10.00">transcriptome: gencode.v25</text>
</g>
<!-- 2&#45;&gt;17 -->
<g id="edge31" class="edge"><title>2&#45;&gt;17</title>
<path fill="none" stroke="grey" stroke-width="2" d="M660.118,-307.919C571.359,-303.877 433.8,-291.985 397,-257 380.654,-241.46 376.458,-215.816 376.036,-195.623"/>
<polygon fill="grey" stroke="grey" stroke-width="2" points="379.538,-195.385 376.126,-185.355 372.539,-195.324 379.538,-195.385"/>
</g>
<!-- 19 -->
<g id="node20" class="node"><title>19</title>
<path fill="none" stroke="#5682d8" stroke-width="2" stroke-dasharray="5,2" d="M698,-257C698,-257 666,-257 666,-257 660,-257 654,-251 654,-245 654,-245 654,-233 654,-233 654,-227 660,-221 666,-221 666,-221 698,-221 698,-221 704,-221 710,-227 710,-233 710,-233 710,-245 710,-245 710,-251 704,-257 698,-257"/>
<text text-anchor="middle" x="682" y="-236.5" font-family="sans" font-size="10.00">index_fa</text>
</g>
<!-- 2&#45;&gt;19 -->
<g id="edge32" class="edge"><title>2&#45;&gt;19</title>
<path fill="none" stroke="grey" stroke-width="2" d="M724.157,-292.697C717.511,-284.389 709.422,-274.277 702.113,-265.141"/>
<polygon fill="grey" stroke="grey" stroke-width="2" points="704.664,-262.727 695.683,-257.104 699.197,-267.099 704.664,-262.727"/>
</g>
<!-- 20 -->
<g id="node21" class="node"><title>20</title>
<path fill="none" stroke="#56d89a" stroke-width="2" stroke-dasharray="5,2" d="M812,-185C812,-185 664,-185 664,-185 658,-185 652,-179 652,-173 652,-173 652,-156 652,-156 652,-150 658,-144 664,-144 664,-144 812,-144 812,-144 818,-144 824,-150 824,-156 824,-156 824,-173 824,-173 824,-179 818,-185 812,-185"/>
<text text-anchor="middle" x="738" y="-173" font-family="sans" font-size="10.00">extract_transcript_seqs</text>
<text text-anchor="middle" x="738" y="-162" font-family="sans" font-size="10.00">genome_build: hg38.analysisSet</text>
<text text-anchor="middle" x="738" y="-151" font-family="sans" font-size="10.00">transcriptome: knownGene</text>
</g>
<!-- 2&#45;&gt;20 -->
<g id="edge35" class="edge"><title>2&#45;&gt;20</title>
<path fill="none" stroke="grey" stroke-width="2" d="M738,-292.857C738,-268.887 738,-224.995 738,-195.531"/>
<polygon fill="grey" stroke="grey" stroke-width="2" points="741.5,-195.393 738,-185.393 734.5,-195.393 741.5,-195.393"/>
</g>
<!-- 3&#45;&gt;8 -->
<g id="edge16" class="edge"><title>3&#45;&gt;8</title>
<path fill="none" stroke="grey" stroke-width="2" d="M193.165,-143.975C200,-122.372 214.297,-88.4446 240,-72 289.731,-40.1825 702.558,-24.3081 829.806,-20.1389"/>
<polygon fill="grey" stroke="grey" stroke-width="2" points="829.964,-23.6357 839.846,-19.815 829.739,-16.6394 829.964,-23.6357"/>
</g>
<!-- 4&#45;&gt;8 -->
<g id="edge17" class="edge"><title>4&#45;&gt;8</title>
<path fill="none" stroke="grey" stroke-width="2" d="M1091.73,-71.9656C1032.5,-58.0072 951.087,-38.8185 904.256,-27.781"/>
<polygon fill="grey" stroke="grey" stroke-width="2" points="904.785,-24.3098 894.249,-25.4223 903.179,-31.1231 904.785,-24.3098"/>
</g>
<!-- 5 -->
<g id="node6" class="node"><title>5</title>
<path fill="none" stroke="#d85656" stroke-width="2" stroke-dasharray="5,2" d="M1014,-182.5C1014,-182.5 892,-182.5 892,-182.5 886,-182.5 880,-176.5 880,-170.5 880,-170.5 880,-158.5 880,-158.5 880,-152.5 886,-146.5 892,-146.5 892,-146.5 1014,-146.5 1014,-146.5 1020,-146.5 1026,-152.5 1026,-158.5 1026,-158.5 1026,-170.5 1026,-170.5 1026,-176.5 1020,-182.5 1014,-182.5"/>
<text text-anchor="middle" x="953" y="-167.5" font-family="sans" font-size="10.00">build_tophat2_index</text>
<text text-anchor="middle" x="953" y="-156.5" font-family="sans" font-size="10.00">transcriptome: knownGene</text>
</g>
<!-- 5&#45;&gt;8 -->
<g id="edge18" class="edge"><title>5&#45;&gt;8</title>
<path fill="none" stroke="grey" stroke-width="2" d="M942.797,-146.357C927.862,-121.262 899.931,-74.3311 882.463,-44.9823"/>
<polygon fill="grey" stroke="grey" stroke-width="2" points="885.312,-42.9244 877.19,-36.1212 879.296,-46.5045 885.312,-42.9244"/>
</g>
<!-- 6&#45;&gt;8 -->
<g id="edge13" class="edge"><title>6&#45;&gt;8</title>
<path fill="none" stroke="grey" stroke-width="2" d="M1094.26,-143.862C1044.15,-116.329 953.516,-66.5347 903.174,-38.8753"/>
<polygon fill="grey" stroke="grey" stroke-width="2" points="904.712,-35.7266 894.262,-33.9787 901.341,-41.8616 904.712,-35.7266"/>
</g>
<!-- 7 -->
<g id="node8" class="node"><title>7</title>
<path fill="none" stroke="#d85656" stroke-width="2" d="M622,-182.5C622,-182.5 494,-182.5 494,-182.5 488,-182.5 482,-176.5 482,-170.5 482,-170.5 482,-158.5 482,-158.5 482,-152.5 488,-146.5 494,-146.5 494,-146.5 622,-146.5 622,-146.5 628,-146.5 634,-152.5 634,-158.5 634,-158.5 634,-170.5 634,-170.5 634,-176.5 628,-182.5 622,-182.5"/>
<text text-anchor="middle" x="558" y="-167.5" font-family="sans" font-size="10.00">build_tophat2_index</text>
<text text-anchor="middle" x="558" y="-156.5" font-family="sans" font-size="10.00">transcriptome: gencode.v25</text>
</g>
<!-- 7&#45;&gt;8 -->
<g id="edge20" class="edge"><title>7&#45;&gt;8</title>
<path fill="none" stroke="grey" stroke-width="2" d="M554.833,-146.49C552.082,-125.984 551.08,-91.8146 570,-72 605.093,-35.2475 757.617,-23.7601 829.394,-20.3524"/>
<polygon fill="grey" stroke="grey" stroke-width="2" points="829.948,-23.8313 839.783,-19.8892 829.637,-16.8382 829.948,-23.8313"/>
</g>
<!-- 9&#45;&gt;8 -->
<g id="edge22" class="edge"><title>9&#45;&gt;8</title>
<path fill="none" stroke="grey" stroke-width="2" d="M1335.02,-220.907C1323.53,-211.389 1310.16,-198.709 1301,-185 1271.24,-140.443 1300.84,-105.467 1259,-72 1204.75,-28.6075 991.425,-20.6987 904.334,-19.2899"/>
<polygon fill="grey" stroke="grey" stroke-width="2" points="904.164,-15.7873 894.116,-19.1455 904.065,-22.7866 904.164,-15.7873"/>
</g>
<!-- 10 -->
<g id="node11" class="node"><title>10</title>
<path fill="none" stroke="#d8cb56" stroke-width="2" stroke-dasharray="5,2" d="M1073.5,-257C1073.5,-257 968.5,-257 968.5,-257 962.5,-257 956.5,-251 956.5,-245 956.5,-245 956.5,-233 956.5,-233 956.5,-227 962.5,-221 968.5,-221 968.5,-221 1073.5,-221 1073.5,-221 1079.5,-221 1085.5,-227 1085.5,-233 1085.5,-233 1085.5,-245 1085.5,-245 1085.5,-251 1079.5,-257 1073.5,-257"/>
<text text-anchor="middle" x="1021" y="-242" font-family="sans" font-size="10.00">gtf_to_gff3</text>
<text text-anchor="middle" x="1021" y="-231" font-family="sans" font-size="10.00">basename: knownGene</text>
</g>
<!-- 10&#45;&gt;5 -->
<g id="edge7" class="edge"><title>10&#45;&gt;5</title>
<path fill="none" stroke="grey" stroke-width="2" d="M1004.88,-220.819C996.247,-211.609 985.456,-200.104 975.956,-189.975"/>
<polygon fill="grey" stroke="grey" stroke-width="2" points="978.393,-187.458 968.999,-182.558 973.288,-192.246 978.393,-187.458"/>
</g>
<!-- 10&#45;&gt;6 -->
<g id="edge9" class="edge"><title>10&#45;&gt;6</title>
<path fill="none" stroke="grey" stroke-width="2" d="M1046.83,-220.819C1060.3,-211.858 1077.04,-200.723 1091.97,-190.798"/>
<polygon fill="grey" stroke="grey" stroke-width="2" points="1094.12,-193.572 1100.5,-185.12 1090.24,-187.744 1094.12,-193.572"/>
</g>
<!-- 10&#45;&gt;20 -->
<g id="edge33" class="edge"><title>10&#45;&gt;20</title>
<path fill="none" stroke="grey" stroke-width="2" d="M956.429,-221.458C917.23,-211.416 866.716,-198.475 824.14,-187.568"/>
<polygon fill="grey" stroke="grey" stroke-width="2" points="824.9,-184.149 814.344,-185.058 823.163,-190.93 824.9,-184.149"/>
</g>
<!-- 11 -->
<g id="node12" class="node"><title>11</title>
<path fill="none" stroke="#d86e56" stroke-width="2" stroke-dasharray="5,2" d="M1414,-108C1414,-108 1322,-108 1322,-108 1316,-108 1310,-102 1310,-96 1310,-96 1310,-84 1310,-84 1310,-78 1316,-72 1322,-72 1322,-72 1414,-72 1414,-72 1420,-72 1426,-78 1426,-84 1426,-84 1426,-96 1426,-96 1426,-102 1420,-108 1414,-108"/>
<text text-anchor="middle" x="1368" y="-87.5" font-family="sans" font-size="10.00">unpack_hisat2_index</text>
</g>
<!-- 11&#45;&gt;8 -->
<g id="edge19" class="edge"><title>11&#45;&gt;8</title>
<path fill="none" stroke="grey" stroke-width="2" d="M1309.95,-74.7217C1305.25,-73.7385 1300.55,-72.8159 1296,-72 1152.37,-46.2511 979.443,-29.0416 904.577,-22.2537"/>
<polygon fill="grey" stroke="grey" stroke-width="2" points="904.531,-18.7355 894.258,-21.328 903.905,-25.7075 904.531,-18.7355"/>
</g>
<!-- 12 -->
<g id="node13" class="node"><title>12</title>
<path fill="none" stroke="#d89c56" stroke-width="2" stroke-dasharray="5,2" d="M547.5,-257C547.5,-257 418.5,-257 418.5,-257 412.5,-257 406.5,-251 406.5,-245 406.5,-245 406.5,-233 406.5,-233 406.5,-227 412.5,-221 418.5,-221 418.5,-221 547.5,-221 547.5,-221 553.5,-221 559.5,-227 559.5,-233 559.5,-233 559.5,-245 559.5,-245 559.5,-251 553.5,-257 547.5,-257"/>
<text text-anchor="middle" x="483" y="-242" font-family="sans" font-size="10.00">get_gencode_annotation_gff</text>
<text text-anchor="middle" x="483" y="-231" font-family="sans" font-size="10.00">release: 25</text>
</g>
<!-- 12&#45;&gt;3 -->
<g id="edge4" class="edge"><title>12&#45;&gt;3</title>
<path fill="none" stroke="grey" stroke-width="2" d="M413.463,-220.91C372.763,-210.908 320.95,-198.174 277.259,-187.436"/>
<polygon fill="grey" stroke="grey" stroke-width="2" points="278.04,-184.024 267.493,-185.037 276.369,-190.822 278.04,-184.024"/>
</g>
<!-- 12&#45;&gt;7 -->
<g id="edge11" class="edge"><title>12&#45;&gt;7</title>
<path fill="none" stroke="grey" stroke-width="2" d="M500.774,-220.819C510.394,-211.519 522.436,-199.878 532.989,-189.677"/>
<polygon fill="grey" stroke="grey" stroke-width="2" points="535.596,-192.025 540.354,-182.558 530.731,-186.992 535.596,-192.025"/>
</g>
<!-- 12&#45;&gt;17 -->
<g id="edge29" class="edge"><title>12&#45;&gt;17</title>
<path fill="none" stroke="grey" stroke-width="2" d="M458.116,-220.819C445.26,-211.941 429.314,-200.931 415.042,-191.077"/>
<polygon fill="grey" stroke="grey" stroke-width="2" points="416.632,-187.921 406.415,-185.12 412.655,-193.682 416.632,-187.921"/>
</g>
<!-- 13 -->
<g id="node14" class="node"><title>13</title>
<path fill="none" stroke="#56d86b" stroke-width="2" stroke-dasharray="5,2" d="M827,-108C827,-108 591,-108 591,-108 585,-108 579,-102 579,-96 579,-96 579,-84 579,-84 579,-78 585,-72 591,-72 591,-72 827,-72 827,-72 833,-72 839,-78 839,-84 839,-84 839,-96 839,-96 839,-102 833,-108 827,-108"/>
<text text-anchor="middle" x="709" y="-93" font-family="sans" font-size="10.00">build_salmon_index</text>
<text text-anchor="middle" x="709" y="-82" font-family="sans" font-size="10.00">transcriptome_build: hg38.analysisSet_knownGene</text>
</g>
<!-- 13&#45;&gt;8 -->
<g id="edge23" class="edge"><title>13&#45;&gt;8</title>
<path fill="none" stroke="grey" stroke-width="2" d="M747.651,-71.8761C772.815,-60.7276 805.444,-46.2715 830.225,-35.2929"/>
<polygon fill="grey" stroke="grey" stroke-width="2" points="831.917,-38.3714 839.642,-31.1206 829.081,-31.9713 831.917,-38.3714"/>
</g>
<!-- 14 -->
<g id="node15" class="node"><title>14</title>
<path fill="none" stroke="#569ad8" stroke-width="2" stroke-dasharray="5,2" d="M1064.5,-329C1064.5,-329 977.5,-329 977.5,-329 971.5,-329 965.5,-323 965.5,-317 965.5,-317 965.5,-305 965.5,-305 965.5,-299 971.5,-293 977.5,-293 977.5,-293 1064.5,-293 1064.5,-293 1070.5,-293 1076.5,-299 1076.5,-305 1076.5,-305 1076.5,-317 1076.5,-317 1076.5,-323 1070.5,-329 1064.5,-329"/>
<text text-anchor="middle" x="1021" y="-308.5" font-family="sans" font-size="10.00">get_knownGene_gtf</text>
</g>
<!-- 14&#45;&gt;10 -->
<g id="edge25" class="edge"><title>14&#45;&gt;10</title>
<path fill="none" stroke="grey" stroke-width="2" d="M1021,-292.697C1021,-284.983 1021,-275.712 1021,-267.112"/>
<polygon fill="grey" stroke="grey" stroke-width="2" points="1024.5,-267.104 1021,-257.104 1017.5,-267.104 1024.5,-267.104"/>
</g>
<!-- 15 -->
<g id="node16" class="node"><title>15</title>
<path fill="none" stroke="#ced856" stroke-width="2" stroke-dasharray="5,2" d="M1414,-182.5C1414,-182.5 1322,-182.5 1322,-182.5 1316,-182.5 1310,-176.5 1310,-170.5 1310,-170.5 1310,-158.5 1310,-158.5 1310,-152.5 1316,-146.5 1322,-146.5 1322,-146.5 1414,-146.5 1414,-146.5 1420,-146.5 1426,-152.5 1426,-158.5 1426,-158.5 1426,-170.5 1426,-170.5 1426,-176.5 1420,-182.5 1414,-182.5"/>
<text text-anchor="middle" x="1368" y="-162" font-family="sans" font-size="10.00">get_hisat2_index_tar</text>
</g>
<!-- 15&#45;&gt;11 -->
<g id="edge26" class="edge"><title>15&#45;&gt;11</title>
<path fill="none" stroke="grey" stroke-width="2" d="M1368,-146.319C1368,-137.922 1368,-127.616 1368,-118.186"/>
<polygon fill="grey" stroke="grey" stroke-width="2" points="1371.5,-118.058 1368,-108.058 1364.5,-118.058 1371.5,-118.058"/>
</g>
<!-- 16&#45;&gt;5 -->
<g id="edge8" class="edge"><title>16&#45;&gt;5</title>
<path fill="none" stroke="grey" stroke-width="2" d="M875.936,-220.819C889.394,-211.158 906.372,-198.97 920.965,-188.496"/>
<polygon fill="grey" stroke="grey" stroke-width="2" points="923.153,-191.233 929.236,-182.558 919.071,-185.546 923.153,-191.233"/>
</g>
<!-- 16&#45;&gt;7 -->
<g id="edge12" class="edge"><title>16&#45;&gt;7</title>
<path fill="none" stroke="grey" stroke-width="2" d="M782.698,-220.91C738.967,-210.126 682.362,-196.168 636.907,-184.958"/>
<polygon fill="grey" stroke="grey" stroke-width="2" points="637.638,-181.534 627.091,-182.538 635.962,-188.33 637.638,-181.534"/>
</g>
<!-- 16&#45;&gt;8 -->
<g id="edge21" class="edge"><title>16&#45;&gt;8</title>
<path fill="none" stroke="grey" stroke-width="2" d="M853.177,-220.815C855.773,-182.915 862.007,-91.8977 865.139,-46.1768"/>
<polygon fill="grey" stroke="grey" stroke-width="2" points="868.637,-46.3206 865.828,-36.1047 861.653,-45.8422 868.637,-46.3206"/>
</g>
<!-- 17&#45;&gt;0 -->
<g id="edge1" class="edge"><title>17&#45;&gt;0</title>
<path fill="none" stroke="grey" stroke-width="2" d="M379.093,-143.689C379.522,-135.907 380.023,-126.842 380.486,-118.447"/>
<polygon fill="grey" stroke="grey" stroke-width="2" points="383.988,-118.497 381.044,-108.319 376.999,-118.111 383.988,-118.497"/>
</g>
<!-- 18 -->
<g id="node19" class="node"><title>18</title>
<path fill="none" stroke="#9fd856" stroke-width="2" stroke-dasharray="5,2" d="M804,-401C804,-401 672,-401 672,-401 666,-401 660,-395 660,-389 660,-389 660,-377 660,-377 660,-371 666,-365 672,-365 672,-365 804,-365 804,-365 810,-365 816,-371 816,-377 816,-377 816,-389 816,-389 816,-395 810,-401 804,-401"/>
<text text-anchor="middle" x="738" y="-380.5" font-family="sans" font-size="10.00">get_hg38_analysisSet_twoBit</text>
</g>
<!-- 18&#45;&gt;2 -->
<g id="edge3" class="edge"><title>18&#45;&gt;2</title>
<path fill="none" stroke="grey" stroke-width="2" d="M738,-364.697C738,-356.983 738,-347.712 738,-339.112"/>
<polygon fill="grey" stroke="grey" stroke-width="2" points="741.5,-339.104 738,-329.104 734.5,-339.104 741.5,-339.104"/>
</g>
<!-- 19&#45;&gt;17 -->
<g id="edge30" class="edge"><title>19&#45;&gt;17</title>
<path fill="none" stroke="grey" stroke-width="2" d="M653.945,-231.309C612.507,-221.427 533.04,-202.475 469.987,-187.438"/>
<polygon fill="grey" stroke="grey" stroke-width="2" points="470.556,-183.975 460.016,-185.06 468.932,-190.784 470.556,-183.975"/>
</g>
<!-- 19&#45;&gt;20 -->
<g id="edge34" class="edge"><title>19&#45;&gt;20</title>
<path fill="none" stroke="grey" stroke-width="2" d="M695.271,-220.819C701.675,-212.528 709.516,-202.376 716.725,-193.043"/>
<polygon fill="grey" stroke="grey" stroke-width="2" points="719.503,-195.173 722.846,-185.12 713.963,-190.894 719.503,-195.173"/>
</g>
<!-- 20&#45;&gt;13 -->
<g id="edge27" class="edge"><title>20&#45;&gt;13</title>
<path fill="none" stroke="grey" stroke-width="2" d="M730.076,-143.689C726.859,-135.647 723.094,-126.236 719.644,-117.61"/>
<polygon fill="grey" stroke="grey" stroke-width="2" points="722.891,-116.304 715.928,-108.319 716.392,-118.904 722.891,-116.304"/>
</g>
</g>
</svg>
