<?xml version="1.0" encoding="UTF-8" standalone="no"?>
<!DOCTYPE svg PUBLIC "-//W3C//DTD SVG 1.1//EN"
 "http://www.w3.org/Graphics/SVG/1.1/DTD/svg11.dtd">
<!-- Generated by graphviz version 2.38.0 (20140413.2041)
 -->
<!-- Title: snakemake_dag Pages: 1 -->
<svg width="1512pt" height="409pt"
 viewBox="0.00 0.00 1512.00 409.00" xmlns="http://www.w3.org/2000/svg" xmlns:xlink="http://www.w3.org/1999/xlink">
<g id="graph0" class="graph" transform="scale(1 1) rotate(0) translate(4 405)">
<title>snakemake_dag</title>
<polygon fill="white" stroke="none" points="-4,4 -4,-405 1508,-405 1508,4 -4,4"/>
<!-- 0 -->
<g id="node1" class="node"><title>0</title>
<path fill="none" stroke="#5673d8" stroke-width="2" stroke-dasharray="5,2" d="M780,-401C780,-401 648,-401 648,-401 642,-401 636,-395 636,-389 636,-389 636,-377 636,-377 636,-371 642,-365 648,-365 648,-365 780,-365 780,-365 786,-365 792,-371 792,-377 792,-377 792,-389 792,-389 792,-395 786,-401 780,-401"/>
<text text-anchor="middle" x="714" y="-380.5" font-family="sans" font-size="10.00">get_hg38_analysisSet_twoBit</text>
</g>
<!-- 6 -->
<g id="node7" class="node"><title>6</title>
<path fill="none" stroke="#70d856" stroke-width="2" stroke-dasharray="5,2" d="M779.5,-329C779.5,-329 648.5,-329 648.5,-329 642.5,-329 636.5,-323 636.5,-317 636.5,-317 636.5,-305 636.5,-305 636.5,-299 642.5,-293 648.5,-293 648.5,-293 779.5,-293 779.5,-293 785.5,-293 791.5,-299 791.5,-305 791.5,-305 791.5,-317 791.5,-317 791.5,-323 785.5,-329 779.5,-329"/>
<text text-anchor="middle" x="714" y="-314" font-family="sans" font-size="10.00">twoBit_to_fasta</text>
<text text-anchor="middle" x="714" y="-303" font-family="sans" font-size="10.00">basename: hg38.analysisSet</text>
</g>
<!-- 0&#45;&gt;6 -->
<g id="edge5" class="edge"><title>0&#45;&gt;6</title>
<path fill="none" stroke="grey" stroke-width="2" d="M714,-364.697C714,-356.983 714,-347.712 714,-339.112"/>
<polygon fill="grey" stroke="grey" stroke-width="2" points="717.5,-339.104 714,-329.104 710.5,-339.104 717.5,-339.104"/>
</g>
<!-- 1 -->
<g id="node2" class="node"><title>1</title>
<path fill="none" stroke="#56d8d8" stroke-width="2" stroke-dasharray="5,2" d="M598,-257C598,-257 566,-257 566,-257 560,-257 554,-251 554,-245 554,-245 554,-233 554,-233 554,-227 560,-221 566,-221 566,-221 598,-221 598,-221 604,-221 610,-227 610,-233 610,-233 610,-245 610,-245 610,-251 604,-257 598,-257"/>
<text text-anchor="middle" x="582" y="-236.5" font-family="sans" font-size="10.00">index_fa</text>
</g>
<!-- 13 -->
<g id="node14" class="node"><title>13</title>
<path fill="none" stroke="#88d856" stroke-width="2" stroke-dasharray="5,2" d="M572,-185C572,-185 424,-185 424,-185 418,-185 412,-179 412,-173 412,-173 412,-156 412,-156 412,-150 418,-144 424,-144 424,-144 572,-144 572,-144 578,-144 584,-150 584,-156 584,-156 584,-173 584,-173 584,-179 578,-185 572,-185"/>
<text text-anchor="middle" x="498" y="-173" font-family="sans" font-size="10.00">extract_transcript_seqs</text>
<text text-anchor="middle" x="498" y="-162" font-family="sans" font-size="10.00">genome_build: hg38.analysisSet</text>
<text text-anchor="middle" x="498" y="-151" font-family="sans" font-size="10.00">transcriptome: gencode.v25</text>
</g>
<!-- 1&#45;&gt;13 -->
<g id="edge13" class="edge"><title>1&#45;&gt;13</title>
<path fill="none" stroke="grey" stroke-width="2" d="M562.093,-220.819C552.099,-212.193 539.772,-201.553 528.606,-191.916"/>
<polygon fill="grey" stroke="grey" stroke-width="2" points="530.589,-189.004 520.732,-185.12 526.015,-194.303 530.589,-189.004"/>
</g>
<!-- 15 -->
<g id="node16" class="node"><title>15</title>
<path fill="none" stroke="#88d856" stroke-width="2" stroke-dasharray="5,2" d="M1016,-185C1016,-185 868,-185 868,-185 862,-185 856,-179 856,-173 856,-173 856,-156 856,-156 856,-150 862,-144 868,-144 868,-144 1016,-144 1016,-144 1022,-144 1028,-150 1028,-156 1028,-156 1028,-173 1028,-173 1028,-179 1022,-185 1016,-185"/>
<text text-anchor="middle" x="942" y="-173" font-family="sans" font-size="10.00">extract_transcript_seqs</text>
<text text-anchor="middle" x="942" y="-162" font-family="sans" font-size="10.00">genome_build: hg38.analysisSet</text>
<text text-anchor="middle" x="942" y="-151" font-family="sans" font-size="10.00">transcriptome: knownGene</text>
</g>
<!-- 1&#45;&gt;15 -->
<g id="edge17" class="edge"><title>1&#45;&gt;15</title>
<path fill="none" stroke="grey" stroke-width="2" d="M610.394,-224.065C613.263,-222.927 616.164,-221.879 619,-221 640.489,-214.343 758.705,-194.728 845.932,-180.708"/>
<polygon fill="grey" stroke="grey" stroke-width="2" points="846.553,-184.153 855.872,-179.113 845.443,-177.241 846.553,-184.153"/>
</g>
<!-- 2 -->
<g id="node3" class="node"><title>2</title>
<path fill="none" stroke="#56d873" stroke-width="2" stroke-dasharray="5,2" d="M852,-108C852,-108 704,-108 704,-108 698,-108 692,-102 692,-96 692,-96 692,-84 692,-84 692,-78 698,-72 704,-72 704,-72 852,-72 852,-72 858,-72 864,-78 864,-84 864,-84 864,-96 864,-96 864,-102 858,-108 852,-108"/>
<text text-anchor="middle" x="778" y="-93" font-family="sans" font-size="10.00">build_bbmap_index</text>
<text text-anchor="middle" x="778" y="-82" font-family="sans" font-size="10.00">genome_build: hg38.analysisSet</text>
</g>
<!-- 20 -->
<g id="node21" class="node"><title>20</title>
<path fill="none" stroke="#d88d56" stroke-width="2" d="M679,-36C679,-36 649,-36 649,-36 643,-36 637,-30 637,-24 637,-24 637,-12 637,-12 637,-6 643,-0 649,-0 649,-0 679,-0 679,-0 685,-0 691,-6 691,-12 691,-12 691,-24 691,-24 691,-30 685,-36 679,-36"/>
<text text-anchor="middle" x="664" y="-15.5" font-family="sans" font-size="10.00">all</text>
</g>
<!-- 2&#45;&gt;20 -->
<g id="edge28" class="edge"><title>2&#45;&gt;20</title>
<path fill="none" stroke="grey" stroke-width="2" d="M750.112,-71.8761C734.984,-62.587 716.117,-51.0015 699.901,-41.0447"/>
<polygon fill="grey" stroke="grey" stroke-width="2" points="701.559,-37.9557 691.206,-35.7056 697.897,-43.9209 701.559,-37.9557"/>
</g>
<!-- 3 -->
<g id="node4" class="node"><title>3</title>
<path fill="none" stroke="#56d8a2" stroke-width="2" stroke-dasharray="5,2" d="M1002.5,-329C1002.5,-329 915.5,-329 915.5,-329 909.5,-329 903.5,-323 903.5,-317 903.5,-317 903.5,-305 903.5,-305 903.5,-299 909.5,-293 915.5,-293 915.5,-293 1002.5,-293 1002.5,-293 1008.5,-293 1014.5,-299 1014.5,-305 1014.5,-305 1014.5,-317 1014.5,-317 1014.5,-323 1008.5,-329 1002.5,-329"/>
<text text-anchor="middle" x="959" y="-308.5" font-family="sans" font-size="10.00">get_knownGene_gtf</text>
</g>
<!-- 12 -->
<g id="node13" class="node"><title>12</title>
<path fill="none" stroke="#59d856" stroke-width="2" stroke-dasharray="5,2" d="M1011.5,-257C1011.5,-257 906.5,-257 906.5,-257 900.5,-257 894.5,-251 894.5,-245 894.5,-245 894.5,-233 894.5,-233 894.5,-227 900.5,-221 906.5,-221 906.5,-221 1011.5,-221 1011.5,-221 1017.5,-221 1023.5,-227 1023.5,-233 1023.5,-233 1023.5,-245 1023.5,-245 1023.5,-251 1017.5,-257 1011.5,-257"/>
<text text-anchor="middle" x="959" y="-242" font-family="sans" font-size="10.00">gtf_to_gff3</text>
<text text-anchor="middle" x="959" y="-231" font-family="sans" font-size="10.00">basename: knownGene</text>
</g>
<!-- 3&#45;&gt;12 -->
<g id="edge12" class="edge"><title>3&#45;&gt;12</title>
<path fill="none" stroke="grey" stroke-width="2" d="M959,-292.697C959,-284.983 959,-275.712 959,-267.112"/>
<polygon fill="grey" stroke="grey" stroke-width="2" points="962.5,-267.104 959,-257.104 955.5,-267.104 962.5,-267.104"/>
</g>
<!-- 4 -->
<g id="node5" class="node"><title>4</title>
<path fill="none" stroke="#d6d856" stroke-width="2" stroke-dasharray="5,2" d="M586,-108C586,-108 344,-108 344,-108 338,-108 332,-102 332,-96 332,-96 332,-84 332,-84 332,-78 338,-72 344,-72 344,-72 586,-72 586,-72 592,-72 598,-78 598,-84 598,-84 598,-96 598,-96 598,-102 592,-108 586,-108"/>
<text text-anchor="middle" x="465" y="-93" font-family="sans" font-size="10.00">build_salmon_index</text>
<text text-anchor="middle" x="465" y="-82" font-family="sans" font-size="10.00">transcriptome_build: hg38.analysisSet_gencode.v25</text>
</g>
<!-- 4&#45;&gt;20 -->
<g id="edge30" class="edge"><title>4&#45;&gt;20</title>
<path fill="none" stroke="grey" stroke-width="2" d="M513.426,-71.9656C548.563,-59.6061 595.357,-43.1458 627.4,-31.8745"/>
<polygon fill="grey" stroke="grey" stroke-width="2" points="628.569,-35.1735 636.841,-28.5534 626.246,-28.5701 628.569,-35.1735"/>
</g>
<!-- 5 -->
<g id="node6" class="node"><title>5</title>
<path fill="none" stroke="#56c1d8" stroke-width="2" stroke-dasharray="5,2" d="M1358,-108C1358,-108 1210,-108 1210,-108 1204,-108 1198,-102 1198,-96 1198,-96 1198,-84 1198,-84 1198,-78 1204,-72 1210,-72 1210,-72 1358,-72 1358,-72 1364,-72 1370,-78 1370,-84 1370,-84 1370,-96 1370,-96 1370,-102 1364,-108 1358,-108"/>
<text text-anchor="middle" x="1284" y="-93" font-family="sans" font-size="10.00">build_bwa_index</text>
<text text-anchor="middle" x="1284" y="-82" font-family="sans" font-size="10.00">genome_build: hg38.analysisSet</text>
</g>
<!-- 5&#45;&gt;20 -->
<g id="edge31" class="edge"><title>5&#45;&gt;20</title>
<path fill="none" stroke="grey" stroke-width="2" d="M1197.87,-73.9825C1193.18,-73.2825 1188.54,-72.6162 1184,-72 1003.59,-47.4993 786.571,-28.8485 701.134,-21.927"/>
<polygon fill="grey" stroke="grey" stroke-width="2" points="701.391,-18.4365 691.143,-21.1226 700.83,-25.4139 701.391,-18.4365"/>
</g>
<!-- 6&#45;&gt;1 -->
<g id="edge1" class="edge"><title>6&#45;&gt;1</title>
<path fill="none" stroke="grey" stroke-width="2" d="M681.709,-292.876C662.865,-282.883 639.008,-270.232 619.356,-259.81"/>
<polygon fill="grey" stroke="grey" stroke-width="2" points="620.846,-256.639 610.372,-255.046 617.567,-262.823 620.846,-256.639"/>
</g>
<!-- 6&#45;&gt;2 -->
<g id="edge2" class="edge"><title>6&#45;&gt;2</title>
<path fill="none" stroke="grey" stroke-width="2" d="M766.684,-292.841C783.18,-284.702 799.532,-273.123 809,-257 834.43,-213.692 822.135,-192.474 809,-144 806.42,-134.48 801.655,-124.917 796.622,-116.587"/>
<polygon fill="grey" stroke="grey" stroke-width="2" points="799.506,-114.601 791.146,-108.092 793.622,-118.393 799.506,-114.601"/>
</g>
<!-- 6&#45;&gt;5 -->
<g id="edge4" class="edge"><title>6&#45;&gt;5</title>
<path fill="none" stroke="grey" stroke-width="2" d="M791.696,-301.088C880.519,-290.439 1020.19,-272.157 1071,-257 1144.18,-235.172 1170.05,-235.869 1227,-185 1248.01,-166.231 1263.74,-137.852 1273.3,-117.186"/>
<polygon fill="grey" stroke="grey" stroke-width="2" points="1276.51,-118.577 1277.37,-108.017 1270.11,-115.736 1276.51,-118.577"/>
</g>
<!-- 7 -->
<g id="node8" class="node"><title>7</title>
<path fill="none" stroke="#bed856" stroke-width="2" stroke-dasharray="5,2" d="M1206,-185C1206,-185 1058,-185 1058,-185 1052,-185 1046,-179 1046,-173 1046,-173 1046,-156 1046,-156 1046,-150 1052,-144 1058,-144 1058,-144 1206,-144 1206,-144 1212,-144 1218,-150 1218,-156 1218,-156 1218,-173 1218,-173 1218,-179 1212,-185 1206,-185"/>
<text text-anchor="middle" x="1132" y="-173" font-family="sans" font-size="10.00">build_star_index</text>
<text text-anchor="middle" x="1132" y="-162" font-family="sans" font-size="10.00">genome_build: hg38.analysisSet</text>
<text text-anchor="middle" x="1132" y="-151" font-family="sans" font-size="10.00">transcriptome: knownGene</text>
</g>
<!-- 6&#45;&gt;7 -->
<g id="edge7" class="edge"><title>6&#45;&gt;7</title>
<path fill="none" stroke="grey" stroke-width="2" d="M791.703,-302.169C871.834,-293.191 990.736,-277.091 1032,-257 1063.14,-241.837 1091.53,-213.861 1110.04,-192.819"/>
<polygon fill="grey" stroke="grey" stroke-width="2" points="1112.78,-195.003 1116.63,-185.135 1107.47,-190.444 1112.78,-195.003"/>
</g>
<!-- 11 -->
<g id="node12" class="node"><title>11</title>
<path fill="none" stroke="#bed856" stroke-width="2" stroke-dasharray="5,2" d="M160,-185C160,-185 12,-185 12,-185 6,-185 0,-179 0,-173 0,-173 0,-156 0,-156 0,-150 6,-144 12,-144 12,-144 160,-144 160,-144 166,-144 172,-150 172,-156 172,-156 172,-173 172,-173 172,-179 166,-185 160,-185"/>
<text text-anchor="middle" x="86" y="-173" font-family="sans" font-size="10.00">build_star_index</text>
<text text-anchor="middle" x="86" y="-162" font-family="sans" font-size="10.00">genome_build: hg38.analysisSet</text>
<text text-anchor="middle" x="86" y="-151" font-family="sans" font-size="10.00">transcriptome: gencode.v25</text>
</g>
<!-- 6&#45;&gt;11 -->
<g id="edge10" class="edge"><title>6&#45;&gt;11</title>
<path fill="none" stroke="grey" stroke-width="2" d="M636.434,-306.532C490.51,-299.461 186.056,-281.917 145,-257 121.705,-242.862 105.936,-215.629 96.6039,-194.534"/>
<polygon fill="grey" stroke="grey" stroke-width="2" points="99.7285,-192.933 92.6503,-185.05 93.2674,-195.626 99.7285,-192.933"/>
</g>
<!-- 6&#45;&gt;13 -->
<g id="edge14" class="edge"><title>6&#45;&gt;13</title>
<path fill="none" stroke="grey" stroke-width="2" d="M636.18,-299.004C605.076,-291.408 570.633,-278.594 545,-257 525.838,-240.857 513.563,-214.927 506.381,-194.785"/>
<polygon fill="grey" stroke="grey" stroke-width="2" points="509.651,-193.527 503.169,-185.147 503.011,-195.741 509.651,-193.527"/>
</g>
<!-- 14 -->
<g id="node15" class="node"><title>14</title>
<path fill="none" stroke="#d86e56" stroke-width="2" stroke-dasharray="5,2" d="M486,-257C486,-257 338,-257 338,-257 332,-257 326,-251 326,-245 326,-245 326,-233 326,-233 326,-227 332,-221 338,-221 338,-221 486,-221 486,-221 492,-221 498,-227 498,-233 498,-233 498,-245 498,-245 498,-251 492,-257 486,-257"/>
<text text-anchor="middle" x="412" y="-242" font-family="sans" font-size="10.00">build_bowtie2_index</text>
<text text-anchor="middle" x="412" y="-231" font-family="sans" font-size="10.00">genome_build: hg38.analysisSet</text>
</g>
<!-- 6&#45;&gt;14 -->
<g id="edge16" class="edge"><title>6&#45;&gt;14</title>
<path fill="none" stroke="grey" stroke-width="2" d="M640.509,-292.966C596.672,-282.805 540.878,-269.872 495.395,-259.33"/>
<polygon fill="grey" stroke="grey" stroke-width="2" points="496.091,-255.899 485.559,-257.05 494.51,-262.718 496.091,-255.899"/>
</g>
<!-- 6&#45;&gt;15 -->
<g id="edge19" class="edge"><title>6&#45;&gt;15</title>
<path fill="none" stroke="grey" stroke-width="2" d="M766.48,-292.993C790.466,-284.055 818.666,-271.852 842,-257 857.406,-247.195 890.887,-215.647 914.864,-192.325"/>
<polygon fill="grey" stroke="grey" stroke-width="2" points="917.573,-194.571 922.28,-185.08 912.681,-189.564 917.573,-194.571"/>
</g>
<!-- 18 -->
<g id="node19" class="node"><title>18</title>
<path fill="none" stroke="#d8a456" stroke-width="2" stroke-dasharray="5,2" d="M788,-257C788,-257 640,-257 640,-257 634,-257 628,-251 628,-245 628,-245 628,-233 628,-233 628,-227 634,-221 640,-221 640,-221 788,-221 788,-221 794,-221 800,-227 800,-233 800,-233 800,-245 800,-245 800,-251 794,-257 788,-257"/>
<text text-anchor="middle" x="714" y="-242" font-family="sans" font-size="10.00">build_bowtie1_index</text>
<text text-anchor="middle" x="714" y="-231" font-family="sans" font-size="10.00">genome_build: hg38.analysisSet</text>
</g>
<!-- 6&#45;&gt;18 -->
<g id="edge22" class="edge"><title>6&#45;&gt;18</title>
<path fill="none" stroke="grey" stroke-width="2" d="M714,-292.697C714,-284.983 714,-275.712 714,-267.112"/>
<polygon fill="grey" stroke="grey" stroke-width="2" points="717.5,-267.104 714,-257.104 710.5,-267.104 717.5,-267.104"/>
</g>
<!-- 7&#45;&gt;20 -->
<g id="edge32" class="edge"><title>7&#45;&gt;20</title>
<path fill="none" stroke="grey" stroke-width="2" d="M1144.69,-143.841C1156.13,-123.398 1168.66,-91.6854 1151,-72 1121.08,-38.6476 810.42,-24.2912 701.49,-20.2569"/>
<polygon fill="grey" stroke="grey" stroke-width="2" points="701.417,-16.7521 691.297,-19.8879 701.164,-23.7475 701.417,-16.7521"/>
</g>
<!-- 8 -->
<g id="node9" class="node"><title>8</title>
<path fill="none" stroke="#d8bc56" stroke-width="2" stroke-dasharray="5,2" d="M1492,-108C1492,-108 1400,-108 1400,-108 1394,-108 1388,-102 1388,-96 1388,-96 1388,-84 1388,-84 1388,-78 1394,-72 1400,-72 1400,-72 1492,-72 1492,-72 1498,-72 1504,-78 1504,-84 1504,-84 1504,-96 1504,-96 1504,-102 1498,-108 1492,-108"/>
<text text-anchor="middle" x="1446" y="-87.5" font-family="sans" font-size="10.00">unpack_hisat2_index</text>
</g>
<!-- 8&#45;&gt;20 -->
<g id="edge25" class="edge"><title>8&#45;&gt;20</title>
<path fill="none" stroke="grey" stroke-width="2" d="M1387.66,-73.5595C1384.74,-72.9875 1381.84,-72.4624 1379,-72 1122.14,-30.2216 807.945,-21.3332 701.38,-19.4783"/>
<polygon fill="grey" stroke="grey" stroke-width="2" points="701.202,-15.975 691.146,-19.3111 701.087,-22.9741 701.202,-15.975"/>
</g>
<!-- 9 -->
<g id="node10" class="node"><title>9</title>
<path fill="none" stroke="#d6d856" stroke-width="2" stroke-dasharray="5,2" d="M1130,-108C1130,-108 894,-108 894,-108 888,-108 882,-102 882,-96 882,-96 882,-84 882,-84 882,-78 888,-72 894,-72 894,-72 1130,-72 1130,-72 1136,-72 1142,-78 1142,-84 1142,-84 1142,-96 1142,-96 1142,-102 1136,-108 1130,-108"/>
<text text-anchor="middle" x="1012" y="-93" font-family="sans" font-size="10.00">build_salmon_index</text>
<text text-anchor="middle" x="1012" y="-82" font-family="sans" font-size="10.00">transcriptome_build: hg38.analysisSet_knownGene</text>
</g>
<!-- 9&#45;&gt;20 -->
<g id="edge27" class="edge"><title>9&#45;&gt;20</title>
<path fill="none" stroke="grey" stroke-width="2" d="M927.315,-71.9656C855.075,-57.4346 754.656,-37.2355 701.11,-26.4647"/>
<polygon fill="grey" stroke="grey" stroke-width="2" points="701.542,-22.9816 691.048,-24.4408 700.162,-29.8441 701.542,-22.9816"/>
</g>
<!-- 10 -->
<g id="node11" class="node"><title>10</title>
<path fill="none" stroke="#56a2d8" stroke-width="2" stroke-dasharray="5,2" d="M1492,-182.5C1492,-182.5 1400,-182.5 1400,-182.5 1394,-182.5 1388,-176.5 1388,-170.5 1388,-170.5 1388,-158.5 1388,-158.5 1388,-152.5 1394,-146.5 1400,-146.5 1400,-146.5 1492,-146.5 1492,-146.5 1498,-146.5 1504,-152.5 1504,-158.5 1504,-158.5 1504,-170.5 1504,-170.5 1504,-176.5 1498,-182.5 1492,-182.5"/>
<text text-anchor="middle" x="1446" y="-162" font-family="sans" font-size="10.00">get_hisat2_index_tar</text>
</g>
<!-- 10&#45;&gt;8 -->
<g id="edge8" class="edge"><title>10&#45;&gt;8</title>
<path fill="none" stroke="grey" stroke-width="2" d="M1446,-146.319C1446,-137.922 1446,-127.616 1446,-118.186"/>
<polygon fill="grey" stroke="grey" stroke-width="2" points="1449.5,-118.058 1446,-108.058 1442.5,-118.058 1449.5,-118.058"/>
</g>
<!-- 11&#45;&gt;20 -->
<g id="edge26" class="edge"><title>11&#45;&gt;20</title>
<path fill="none" stroke="grey" stroke-width="2" d="M116.681,-143.937C151.638,-122.633 211.168,-89.2947 267,-72 394.936,-32.3705 555.095,-22.3719 626.565,-19.8501"/>
<polygon fill="grey" stroke="grey" stroke-width="2" points="626.972,-23.3388 636.854,-19.5178 626.746,-16.3425 626.972,-23.3388"/>
</g>
<!-- 12&#45;&gt;7 -->
<g id="edge6" class="edge"><title>12&#45;&gt;7</title>
<path fill="none" stroke="grey" stroke-width="2" d="M999.999,-220.819C1022.68,-211.313 1051.2,-199.363 1075.92,-189.003"/>
<polygon fill="grey" stroke="grey" stroke-width="2" points="1077.31,-192.213 1085.18,-185.12 1074.61,-185.757 1077.31,-192.213"/>
</g>
<!-- 12&#45;&gt;15 -->
<g id="edge18" class="edge"><title>12&#45;&gt;15</title>
<path fill="none" stroke="grey" stroke-width="2" d="M954.971,-220.819C953.165,-213.114 950.981,-203.802 948.925,-195.034"/>
<polygon fill="grey" stroke="grey" stroke-width="2" points="952.291,-194.056 946.6,-185.12 945.476,-195.655 952.291,-194.056"/>
</g>
<!-- 19 -->
<g id="node20" class="node"><title>19</title>
<path fill="none" stroke="#568ad8" stroke-width="2" stroke-dasharray="5,2" d="M788,-182.5C788,-182.5 666,-182.5 666,-182.5 660,-182.5 654,-176.5 654,-170.5 654,-170.5 654,-158.5 654,-158.5 654,-152.5 660,-146.5 666,-146.5 666,-146.5 788,-146.5 788,-146.5 794,-146.5 800,-152.5 800,-158.5 800,-158.5 800,-170.5 800,-170.5 800,-176.5 794,-182.5 788,-182.5"/>
<text text-anchor="middle" x="727" y="-167.5" font-family="sans" font-size="10.00">build_tophat2_index</text>
<text text-anchor="middle" x="727" y="-156.5" font-family="sans" font-size="10.00">transcriptome: knownGene</text>
</g>
<!-- 12&#45;&gt;19 -->
<g id="edge23" class="edge"><title>12&#45;&gt;19</title>
<path fill="none" stroke="grey" stroke-width="2" d="M904.313,-220.91C870.517,-210.349 826.976,-196.742 791.499,-185.656"/>
<polygon fill="grey" stroke="grey" stroke-width="2" points="792.31,-182.243 781.721,-182.6 790.222,-188.924 792.31,-182.243"/>
</g>
<!-- 13&#45;&gt;4 -->
<g id="edge3" class="edge"><title>13&#45;&gt;4</title>
<path fill="none" stroke="grey" stroke-width="2" d="M488.983,-143.689C485.322,-135.647 481.038,-126.236 477.112,-117.61"/>
<polygon fill="grey" stroke="grey" stroke-width="2" points="480.212,-115.971 472.883,-108.319 473.841,-118.871 480.212,-115.971"/>
</g>
<!-- 16 -->
<g id="node17" class="node"><title>16</title>
<path fill="none" stroke="#568ad8" stroke-width="2" d="M330,-182.5C330,-182.5 202,-182.5 202,-182.5 196,-182.5 190,-176.5 190,-170.5 190,-170.5 190,-158.5 190,-158.5 190,-152.5 196,-146.5 202,-146.5 202,-146.5 330,-146.5 330,-146.5 336,-146.5 342,-152.5 342,-158.5 342,-158.5 342,-170.5 342,-170.5 342,-176.5 336,-182.5 330,-182.5"/>
<text text-anchor="middle" x="266" y="-167.5" font-family="sans" font-size="10.00">build_tophat2_index</text>
<text text-anchor="middle" x="266" y="-156.5" font-family="sans" font-size="10.00">transcriptome: gencode.v25</text>
</g>
<!-- 14&#45;&gt;16 -->
<g id="edge20" class="edge"><title>14&#45;&gt;16</title>
<path fill="none" stroke="grey" stroke-width="2" d="M377.4,-220.819C357.036,-210.706 331.098,-197.826 309.375,-187.039"/>
<polygon fill="grey" stroke="grey" stroke-width="2" points="310.865,-183.871 300.352,-182.558 307.751,-190.141 310.865,-183.871"/>
</g>
<!-- 14&#45;&gt;19 -->
<g id="edge24" class="edge"><title>14&#45;&gt;19</title>
<path fill="none" stroke="grey" stroke-width="2" d="M486.252,-220.91C533.558,-210.022 594.926,-195.898 643.862,-184.635"/>
<polygon fill="grey" stroke="grey" stroke-width="2" points="644.83,-188.004 653.791,-182.35 643.26,-181.182 644.83,-188.004"/>
</g>
<!-- 14&#45;&gt;20 -->
<g id="edge35" class="edge"><title>14&#45;&gt;20</title>
<path fill="none" stroke="grey" stroke-width="2" d="M401.41,-220.727C389.57,-201.645 369.608,-170.156 351,-144 339.25,-127.483 329.578,-127.173 323,-108 317.807,-92.866 312.591,-84.1515 323,-72 361.793,-26.7119 546.439,-19.8087 626.655,-18.9782"/>
<polygon fill="grey" stroke="grey" stroke-width="2" points="626.833,-22.4771 636.806,-18.9002 626.779,-15.4773 626.833,-22.4771"/>
</g>
<!-- 15&#45;&gt;9 -->
<g id="edge9" class="edge"><title>15&#45;&gt;9</title>
<path fill="none" stroke="grey" stroke-width="2" d="M961.128,-143.689C969.477,-135.042 979.355,-124.811 988.175,-115.676"/>
<polygon fill="grey" stroke="grey" stroke-width="2" points="990.85,-117.945 995.278,-108.319 985.814,-113.082 990.85,-117.945"/>
</g>
<!-- 16&#45;&gt;20 -->
<g id="edge33" class="edge"><title>16&#45;&gt;20</title>
<path fill="none" stroke="grey" stroke-width="2" d="M265.242,-146.478C265.322,-125.632 268.904,-90.7851 290,-72 339.257,-28.1381 542.006,-20.4827 626.63,-19.2159"/>
<polygon fill="grey" stroke="grey" stroke-width="2" points="626.864,-22.7133 636.819,-19.086 626.775,-15.7138 626.864,-22.7133"/>
</g>
<!-- 17 -->
<g id="node18" class="node"><title>17</title>
<path fill="none" stroke="#d85656" stroke-width="2" stroke-dasharray="5,2" d="M295.5,-257C295.5,-257 166.5,-257 166.5,-257 160.5,-257 154.5,-251 154.5,-245 154.5,-245 154.5,-233 154.5,-233 154.5,-227 160.5,-221 166.5,-221 166.5,-221 295.5,-221 295.5,-221 301.5,-221 307.5,-227 307.5,-233 307.5,-233 307.5,-245 307.5,-245 307.5,-251 301.5,-257 295.5,-257"/>
<text text-anchor="middle" x="231" y="-242" font-family="sans" font-size="10.00">get_gencode_annotation_gff</text>
<text text-anchor="middle" x="231" y="-231" font-family="sans" font-size="10.00">release: 25</text>
</g>
<!-- 17&#45;&gt;11 -->
<g id="edge11" class="edge"><title>17&#45;&gt;11</title>
<path fill="none" stroke="grey" stroke-width="2" d="M196.637,-220.819C178.045,-211.523 154.776,-199.888 134.381,-189.69"/>
<polygon fill="grey" stroke="grey" stroke-width="2" points="135.749,-186.461 125.239,-185.12 132.618,-192.722 135.749,-186.461"/>
</g>
<!-- 17&#45;&gt;13 -->
<g id="edge15" class="edge"><title>17&#45;&gt;13</title>
<path fill="none" stroke="grey" stroke-width="2" d="M293.937,-220.91C330.464,-210.992 376.882,-198.388 416.215,-187.708"/>
<polygon fill="grey" stroke="grey" stroke-width="2" points="417.318,-191.035 426.052,-185.037 415.484,-184.279 417.318,-191.035"/>
</g>
<!-- 17&#45;&gt;16 -->
<g id="edge21" class="edge"><title>17&#45;&gt;16</title>
<path fill="none" stroke="grey" stroke-width="2" d="M239.295,-220.819C243.479,-212.151 248.645,-201.449 253.315,-191.776"/>
<polygon fill="grey" stroke="grey" stroke-width="2" points="256.569,-193.085 257.765,-182.558 250.266,-190.042 256.569,-193.085"/>
</g>
<!-- 18&#45;&gt;20 -->
<g id="edge29" class="edge"><title>18&#45;&gt;20</title>
<path fill="none" stroke="grey" stroke-width="2" d="M680.164,-220.961C666.621,-212.216 652.479,-200.175 645,-185 622.804,-139.962 639.31,-79.9377 652.329,-45.7831"/>
<polygon fill="grey" stroke="grey" stroke-width="2" points="655.753,-46.6441 656.21,-36.0591 649.252,-44.0489 655.753,-46.6441"/>
</g>
<!-- 19&#45;&gt;20 -->
<g id="edge34" class="edge"><title>19&#45;&gt;20</title>
<path fill="none" stroke="grey" stroke-width="2" d="M710.031,-146.428C700.709,-136.113 689.709,-122.238 683,-108 673.768,-88.4059 668.975,-64.2742 666.514,-46.0841"/>
<polygon fill="grey" stroke="grey" stroke-width="2" points="669.987,-45.6507 665.319,-36.1398 663.037,-46.4861 669.987,-45.6507"/>
</g>
</g>
</svg>
