<?xml version="1.0" encoding="UTF-8" standalone="no"?>
<!DOCTYPE svg PUBLIC "-//W3C//DTD SVG 1.1//EN"
 "http://www.w3.org/Graphics/SVG/1.1/DTD/svg11.dtd">
<!-- Generated by graphviz version 2.38.0 (20140413.2041)
 -->
<!-- Title: snakemake_dag Pages: 1 -->
<svg width="822pt" height="404pt"
 viewBox="0.00 0.00 822.00 404.00" xmlns="http://www.w3.org/2000/svg" xmlns:xlink="http://www.w3.org/1999/xlink">
<g id="graph0" class="graph" transform="scale(1 1) rotate(0) translate(4 400)">
<title>snakemake_dag</title>
<polygon fill="white" stroke="none" points="-4,4 -4,-400 818,-400 818,4 -4,4"/>
<!-- 0 -->
<g id="node1" class="node"><title>0</title>
<path fill="none" stroke="#88d856" stroke-width="2" d="M363.5,-180C363.5,-180 293.5,-180 293.5,-180 287.5,-180 281.5,-174 281.5,-168 281.5,-168 281.5,-156 281.5,-156 281.5,-150 287.5,-144 293.5,-144 293.5,-144 363.5,-144 363.5,-144 369.5,-144 375.5,-150 375.5,-156 375.5,-156 375.5,-168 375.5,-168 375.5,-174 369.5,-180 363.5,-180"/>
<text text-anchor="middle" x="328.5" y="-159.5" font-family="sans" font-size="10.00">build_star_index</text>
</g>
<!-- 16 -->
<g id="node17" class="node"><title>16</title>
<path fill="none" stroke="#9fd856" stroke-width="2" d="M499.5,-36C499.5,-36 469.5,-36 469.5,-36 463.5,-36 457.5,-30 457.5,-24 457.5,-24 457.5,-12 457.5,-12 457.5,-6 463.5,-0 469.5,-0 469.5,-0 499.5,-0 499.5,-0 505.5,-0 511.5,-6 511.5,-12 511.5,-12 511.5,-24 511.5,-24 511.5,-30 505.5,-36 499.5,-36"/>
<text text-anchor="middle" x="484.5" y="-15.5" font-family="sans" font-size="10.00">all</text>
</g>
<!-- 0&#45;&gt;16 -->
<g id="edge20" class="edge"><title>0&#45;&gt;16</title>
<path fill="none" stroke="grey" stroke-width="2" d="M347.317,-143.871C374.959,-118.711 426.655,-71.6535 458.088,-43.0415"/>
<polygon fill="grey" stroke="grey" stroke-width="2" points="460.577,-45.509 465.616,-36.1893 455.865,-40.3324 460.577,-45.509"/>
</g>
<!-- 1 -->
<g id="node2" class="node"><title>1</title>
<path fill="none" stroke="#56d89a" stroke-width="2" d="M333.5,-108C333.5,-108 241.5,-108 241.5,-108 235.5,-108 229.5,-102 229.5,-96 229.5,-96 229.5,-84 229.5,-84 229.5,-78 235.5,-72 241.5,-72 241.5,-72 333.5,-72 333.5,-72 339.5,-72 345.5,-78 345.5,-84 345.5,-84 345.5,-96 345.5,-96 345.5,-102 339.5,-108 333.5,-108"/>
<text text-anchor="middle" x="287.5" y="-87.5" font-family="sans" font-size="10.00">unpack_hisat2_index</text>
</g>
<!-- 1&#45;&gt;16 -->
<g id="edge21" class="edge"><title>1&#45;&gt;16</title>
<path fill="none" stroke="grey" stroke-width="2" d="M335.44,-71.9656C369.97,-59.6959 415.874,-43.3847 447.574,-32.121"/>
<polygon fill="grey" stroke="grey" stroke-width="2" points="449.083,-35.2991 457.334,-28.6528 446.739,-28.7031 449.083,-35.2991"/>
</g>
<!-- 2 -->
<g id="node3" class="node"><title>2</title>
<path fill="none" stroke="#d85656" stroke-width="2" d="M802,-108C802,-108 717,-108 717,-108 711,-108 705,-102 705,-96 705,-96 705,-84 705,-84 705,-78 711,-72 717,-72 717,-72 802,-72 802,-72 808,-72 814,-78 814,-84 814,-84 814,-96 814,-96 814,-102 808,-108 802,-108"/>
<text text-anchor="middle" x="759.5" y="-87.5" font-family="sans" font-size="10.00">build_bbmap_index</text>
</g>
<!-- 2&#45;&gt;16 -->
<g id="edge22" class="edge"><title>2&#45;&gt;16</title>
<path fill="none" stroke="grey" stroke-width="2" d="M704.84,-75.0866C650.554,-61.2683 568.803,-40.459 521.642,-28.4543"/>
<polygon fill="grey" stroke="grey" stroke-width="2" points="522.398,-25.0353 511.844,-25.9602 520.671,-31.8189 522.398,-25.0353"/>
</g>
<!-- 3 -->
<g id="node4" class="node"><title>3</title>
<path fill="none" stroke="#d86e56" stroke-width="2" d="M117,-180C117,-180 12,-180 12,-180 6,-180 0,-174 0,-168 0,-168 0,-156 0,-156 0,-150 6,-144 12,-144 12,-144 117,-144 117,-144 123,-144 129,-150 129,-156 129,-156 129,-168 129,-168 129,-174 123,-180 117,-180"/>
<text text-anchor="middle" x="64.5" y="-159.5" font-family="sans" font-size="10.00">extract_transcript_seqs</text>
</g>
<!-- 5 -->
<g id="node6" class="node"><title>5</title>
<path fill="none" stroke="#59d856" stroke-width="2" d="M134.5,-108C134.5,-108 48.5,-108 48.5,-108 42.5,-108 36.5,-102 36.5,-96 36.5,-96 36.5,-84 36.5,-84 36.5,-78 42.5,-72 48.5,-72 48.5,-72 134.5,-72 134.5,-72 140.5,-72 146.5,-78 146.5,-84 146.5,-84 146.5,-96 146.5,-96 146.5,-102 140.5,-108 134.5,-108"/>
<text text-anchor="middle" x="91.5" y="-87.5" font-family="sans" font-size="10.00">build_salmon_index</text>
</g>
<!-- 3&#45;&gt;5 -->
<g id="edge11" class="edge"><title>3&#45;&gt;5</title>
<path fill="none" stroke="grey" stroke-width="2" d="M71.1742,-143.697C74.2149,-135.813 77.8827,-126.304 81.2607,-117.546"/>
<polygon fill="grey" stroke="grey" stroke-width="2" points="84.5693,-118.694 84.9026,-108.104 78.0383,-116.175 84.5693,-118.694"/>
</g>
<!-- 4 -->
<g id="node5" class="node"><title>4</title>
<path fill="none" stroke="#56d8b1" stroke-width="2" d="M636.5,-108C636.5,-108 548.5,-108 548.5,-108 542.5,-108 536.5,-102 536.5,-96 536.5,-96 536.5,-84 536.5,-84 536.5,-78 542.5,-72 548.5,-72 548.5,-72 636.5,-72 636.5,-72 642.5,-72 648.5,-78 648.5,-84 648.5,-84 648.5,-96 648.5,-96 648.5,-102 642.5,-108 636.5,-108"/>
<text text-anchor="middle" x="592.5" y="-87.5" font-family="sans" font-size="10.00">build_bowtie1_index</text>
</g>
<!-- 4&#45;&gt;16 -->
<g id="edge23" class="edge"><title>4&#45;&gt;16</title>
<path fill="none" stroke="grey" stroke-width="2" d="M566.08,-71.8761C552.09,-62.8083 534.724,-51.5523 519.614,-41.7592"/>
<polygon fill="grey" stroke="grey" stroke-width="2" points="521.317,-38.6917 511.021,-36.1898 517.509,-44.5658 521.317,-38.6917"/>
</g>
<!-- 5&#45;&gt;16 -->
<g id="edge24" class="edge"><title>5&#45;&gt;16</title>
<path fill="none" stroke="grey" stroke-width="2" d="M146.559,-79.1931C227.736,-64.7341 377.423,-38.0722 447.055,-25.6695"/>
<polygon fill="grey" stroke="grey" stroke-width="2" points="447.895,-29.0752 457.126,-23.8758 446.667,-22.1837 447.895,-29.0752"/>
</g>
<!-- 6 -->
<g id="node7" class="node"><title>6</title>
<path fill="none" stroke="#56d8c9" stroke-width="2" d="M495,-180C495,-180 406,-180 406,-180 400,-180 394,-174 394,-168 394,-168 394,-156 394,-156 394,-150 400,-144 406,-144 406,-144 495,-144 495,-144 501,-144 507,-150 507,-156 507,-156 507,-168 507,-168 507,-174 501,-180 495,-180"/>
<text text-anchor="middle" x="450.5" y="-159.5" font-family="sans" font-size="10.00">build_tophat2_index</text>
</g>
<!-- 6&#45;&gt;16 -->
<g id="edge25" class="edge"><title>6&#45;&gt;16</title>
<path fill="none" stroke="grey" stroke-width="2" d="M454.601,-143.871C460.421,-119.564 471.135,-74.8187 478.032,-46.0132"/>
<polygon fill="grey" stroke="grey" stroke-width="2" points="481.459,-46.7294 480.384,-36.1893 474.652,-45.0994 481.459,-46.7294"/>
</g>
<!-- 7 -->
<g id="node8" class="node"><title>7</title>
<path fill="none" stroke="#ced856" stroke-width="2" d="M550.5,-324C550.5,-324 484.5,-324 484.5,-324 478.5,-324 472.5,-318 472.5,-312 472.5,-312 472.5,-300 472.5,-300 472.5,-294 478.5,-288 484.5,-288 484.5,-288 550.5,-288 550.5,-288 556.5,-288 562.5,-294 562.5,-300 562.5,-300 562.5,-312 562.5,-312 562.5,-318 556.5,-324 550.5,-324"/>
<text text-anchor="middle" x="517.5" y="-303.5" font-family="sans" font-size="10.00">twoBit_to_fasta</text>
</g>
<!-- 7&#45;&gt;0 -->
<g id="edge1" class="edge"><title>7&#45;&gt;0</title>
<path fill="none" stroke="grey" stroke-width="2" d="M495.855,-287.9C483.08,-277.672 466.686,-264.311 452.5,-252 434.684,-236.539 432.258,-230.304 413.5,-216 399.185,-205.084 382.549,-194.33 367.809,-185.392"/>
<polygon fill="grey" stroke="grey" stroke-width="2" points="369.294,-182.202 358.915,-180.077 365.703,-188.211 369.294,-182.202"/>
</g>
<!-- 7&#45;&gt;2 -->
<g id="edge5" class="edge"><title>7&#45;&gt;2</title>
<path fill="none" stroke="grey" stroke-width="2" d="M562.909,-291.949C613.238,-274.937 692.563,-240.035 732.5,-180 744.893,-161.37 751.78,-136.831 755.492,-118.239"/>
<polygon fill="grey" stroke="grey" stroke-width="2" points="758.947,-118.797 757.284,-108.334 752.059,-117.551 758.947,-118.797"/>
</g>
<!-- 7&#45;&gt;3 -->
<g id="edge7" class="edge"><title>7&#45;&gt;3</title>
<path fill="none" stroke="grey" stroke-width="2" d="M472.151,-302.449C366.502,-296.091 110.78,-278.147 82.5,-252 65.8205,-236.578 62.2153,-210.318 62.2504,-190.308"/>
<polygon fill="grey" stroke="grey" stroke-width="2" points="65.7514,-190.329 62.5673,-180.224 58.7549,-190.109 65.7514,-190.329"/>
</g>
<!-- 7&#45;&gt;4 -->
<g id="edge10" class="edge"><title>7&#45;&gt;4</title>
<path fill="none" stroke="grey" stroke-width="2" d="M548.312,-287.799C561.199,-278.891 574.918,-266.766 582.5,-252 604.432,-209.288 601.473,-151.575 597.126,-118.111"/>
<polygon fill="grey" stroke="grey" stroke-width="2" points="600.581,-117.548 595.695,-108.147 593.652,-118.543 600.581,-117.548"/>
</g>
<!-- 8 -->
<g id="node9" class="node"><title>8</title>
<path fill="none" stroke="#56c9d8" stroke-width="2" d="M711.5,-180C711.5,-180 641.5,-180 641.5,-180 635.5,-180 629.5,-174 629.5,-168 629.5,-168 629.5,-156 629.5,-156 629.5,-150 635.5,-144 641.5,-144 641.5,-144 711.5,-144 711.5,-144 717.5,-144 723.5,-150 723.5,-156 723.5,-156 723.5,-168 723.5,-168 723.5,-174 717.5,-180 711.5,-180"/>
<text text-anchor="middle" x="676.5" y="-159.5" font-family="sans" font-size="10.00">build_bwa_index</text>
</g>
<!-- 7&#45;&gt;8 -->
<g id="edge16" class="edge"><title>7&#45;&gt;8</title>
<path fill="none" stroke="grey" stroke-width="2" d="M559.379,-287.786C577.884,-278.875 599.11,-266.752 615.5,-252 635.482,-234.015 652.231,-208.224 663.092,-189.032"/>
<polygon fill="grey" stroke="grey" stroke-width="2" points="666.194,-190.653 667.939,-180.203 660.058,-187.284 666.194,-190.653"/>
</g>
<!-- 11 -->
<g id="node12" class="node"><title>11</title>
<path fill="none" stroke="#569ad8" stroke-width="2" d="M561.5,-252C561.5,-252 473.5,-252 473.5,-252 467.5,-252 461.5,-246 461.5,-240 461.5,-240 461.5,-228 461.5,-228 461.5,-222 467.5,-216 473.5,-216 473.5,-216 561.5,-216 561.5,-216 567.5,-216 573.5,-222 573.5,-228 573.5,-228 573.5,-240 573.5,-240 573.5,-246 567.5,-252 561.5,-252"/>
<text text-anchor="middle" x="517.5" y="-231.5" font-family="sans" font-size="10.00">build_bowtie2_index</text>
</g>
<!-- 7&#45;&gt;11 -->
<g id="edge17" class="edge"><title>7&#45;&gt;11</title>
<path fill="none" stroke="grey" stroke-width="2" d="M517.5,-287.697C517.5,-279.983 517.5,-270.712 517.5,-262.112"/>
<polygon fill="grey" stroke="grey" stroke-width="2" points="521,-262.104 517.5,-252.104 514,-262.104 521,-262.104"/>
</g>
<!-- 14 -->
<g id="node15" class="node"><title>14</title>
<path fill="none" stroke="#56d86b" stroke-width="2" d="M135.5,-252C135.5,-252 103.5,-252 103.5,-252 97.5,-252 91.5,-246 91.5,-240 91.5,-240 91.5,-228 91.5,-228 91.5,-222 97.5,-216 103.5,-216 103.5,-216 135.5,-216 135.5,-216 141.5,-216 147.5,-222 147.5,-228 147.5,-228 147.5,-240 147.5,-240 147.5,-246 141.5,-252 135.5,-252"/>
<text text-anchor="middle" x="119.5" y="-231.5" font-family="sans" font-size="10.00">index_fa</text>
</g>
<!-- 7&#45;&gt;14 -->
<g id="edge19" class="edge"><title>7&#45;&gt;14</title>
<path fill="none" stroke="grey" stroke-width="2" d="M472.439,-302.509C405.128,-297.899 274.575,-285.519 157.695,-251.895"/>
<polygon fill="grey" stroke="grey" stroke-width="2" points="158.453,-248.469 147.872,-249.008 156.479,-255.185 158.453,-248.469"/>
</g>
<!-- 8&#45;&gt;16 -->
<g id="edge26" class="edge"><title>8&#45;&gt;16</title>
<path fill="none" stroke="grey" stroke-width="2" d="M677.66,-143.97C678.043,-124.165 675.542,-91.6834 657.5,-72 622.623,-33.9501 561.245,-22.9105 521.754,-19.8834"/>
<polygon fill="grey" stroke="grey" stroke-width="2" points="521.927,-16.3875 511.727,-19.2503 521.486,-23.3736 521.927,-16.3875"/>
</g>
<!-- 9 -->
<g id="node10" class="node"><title>9</title>
<path fill="none" stroke="#d8cb56" stroke-width="2" d="M251.5,-180C251.5,-180 159.5,-180 159.5,-180 153.5,-180 147.5,-174 147.5,-168 147.5,-168 147.5,-156 147.5,-156 147.5,-150 153.5,-144 159.5,-144 159.5,-144 251.5,-144 251.5,-144 257.5,-144 263.5,-150 263.5,-156 263.5,-156 263.5,-168 263.5,-168 263.5,-174 257.5,-180 251.5,-180"/>
<text text-anchor="middle" x="205.5" y="-159.5" font-family="sans" font-size="10.00">get_hisat2_index_tar</text>
</g>
<!-- 9&#45;&gt;1 -->
<g id="edge4" class="edge"><title>9&#45;&gt;1</title>
<path fill="none" stroke="grey" stroke-width="2" d="M225.77,-143.697C235.998,-134.965 248.561,-124.24 259.678,-114.75"/>
<polygon fill="grey" stroke="grey" stroke-width="2" points="262.13,-117.259 267.463,-108.104 257.585,-111.935 262.13,-117.259"/>
</g>
<!-- 10 -->
<g id="node11" class="node"><title>10</title>
<path fill="none" stroke="#d8b456" stroke-width="2" d="M393,-252C393,-252 264,-252 264,-252 258,-252 252,-246 252,-240 252,-240 252,-228 252,-228 252,-222 258,-216 264,-216 264,-216 393,-216 393,-216 399,-216 405,-222 405,-228 405,-228 405,-240 405,-240 405,-246 399,-252 393,-252"/>
<text text-anchor="middle" x="328.5" y="-231.5" font-family="sans" font-size="10.00">get_gencode_annotation_gff</text>
</g>
<!-- 10&#45;&gt;0 -->
<g id="edge3" class="edge"><title>10&#45;&gt;0</title>
<path fill="none" stroke="grey" stroke-width="2" d="M328.5,-215.697C328.5,-207.983 328.5,-198.712 328.5,-190.112"/>
<polygon fill="grey" stroke="grey" stroke-width="2" points="332,-190.104 328.5,-180.104 325,-190.104 332,-190.104"/>
</g>
<!-- 10&#45;&gt;3 -->
<g id="edge8" class="edge"><title>10&#45;&gt;3</title>
<path fill="none" stroke="grey" stroke-width="2" d="M264.256,-215.966C226.407,-205.93 178.361,-193.19 138.875,-182.721"/>
<polygon fill="grey" stroke="grey" stroke-width="2" points="139.595,-179.291 129.032,-180.111 137.801,-186.057 139.595,-179.291"/>
</g>
<!-- 10&#45;&gt;6 -->
<g id="edge14" class="edge"><title>10&#45;&gt;6</title>
<path fill="none" stroke="grey" stroke-width="2" d="M358.345,-215.876C374.444,-206.639 394.501,-195.131 411.788,-185.212"/>
<polygon fill="grey" stroke="grey" stroke-width="2" points="413.609,-188.202 420.541,-180.19 410.125,-182.131 413.609,-188.202"/>
</g>
<!-- 11&#45;&gt;6 -->
<g id="edge13" class="edge"><title>11&#45;&gt;6</title>
<path fill="none" stroke="grey" stroke-width="2" d="M500.938,-215.697C492.825,-207.22 482.912,-196.864 474.029,-187.583"/>
<polygon fill="grey" stroke="grey" stroke-width="2" points="476.314,-184.908 466.871,-180.104 471.257,-189.749 476.314,-184.908"/>
</g>
<!-- 11&#45;&gt;16 -->
<g id="edge27" class="edge"><title>11&#45;&gt;16</title>
<path fill="none" stroke="grey" stroke-width="2" d="M518.23,-215.852C518.735,-197.865 518.815,-168.817 515.5,-144 510.916,-109.677 500.532,-71.133 493.044,-46.0379"/>
<polygon fill="grey" stroke="grey" stroke-width="2" points="496.297,-44.7057 490.038,-36.1577 489.6,-46.7436 496.297,-44.7057"/>
</g>
<!-- 12 -->
<g id="node13" class="node"><title>12</title>
<path fill="none" stroke="#566bd8" stroke-width="2" d="M583.5,-396C583.5,-396 451.5,-396 451.5,-396 445.5,-396 439.5,-390 439.5,-384 439.5,-384 439.5,-372 439.5,-372 439.5,-366 445.5,-360 451.5,-360 451.5,-360 583.5,-360 583.5,-360 589.5,-360 595.5,-366 595.5,-372 595.5,-372 595.5,-384 595.5,-384 595.5,-390 589.5,-396 583.5,-396"/>
<text text-anchor="middle" x="517.5" y="-375.5" font-family="sans" font-size="10.00">get_hg38_analysisSet_twoBit</text>
</g>
<!-- 12&#45;&gt;7 -->
<g id="edge15" class="edge"><title>12&#45;&gt;7</title>
<path fill="none" stroke="grey" stroke-width="2" d="M517.5,-359.697C517.5,-351.983 517.5,-342.712 517.5,-334.112"/>
<polygon fill="grey" stroke="grey" stroke-width="2" points="521,-334.104 517.5,-324.104 514,-334.104 521,-334.104"/>
</g>
<!-- 13 -->
<g id="node14" class="node"><title>13</title>
<path fill="none" stroke="#d89c56" stroke-width="2" d="M221.5,-252C221.5,-252 177.5,-252 177.5,-252 171.5,-252 165.5,-246 165.5,-240 165.5,-240 165.5,-228 165.5,-228 165.5,-222 171.5,-216 177.5,-216 177.5,-216 221.5,-216 221.5,-216 227.5,-216 233.5,-222 233.5,-228 233.5,-228 233.5,-240 233.5,-240 233.5,-246 227.5,-252 221.5,-252"/>
<text text-anchor="middle" x="199.5" y="-231.5" font-family="sans" font-size="10.00">gtf_to_gff3</text>
</g>
<!-- 13&#45;&gt;0 -->
<g id="edge2" class="edge"><title>13&#45;&gt;0</title>
<path fill="none" stroke="grey" stroke-width="2" d="M231.057,-215.876C248.158,-206.596 269.482,-195.025 287.819,-185.075"/>
<polygon fill="grey" stroke="grey" stroke-width="2" points="289.702,-188.035 296.822,-180.19 286.363,-181.883 289.702,-188.035"/>
</g>
<!-- 13&#45;&gt;3 -->
<g id="edge6" class="edge"><title>13&#45;&gt;3</title>
<path fill="none" stroke="grey" stroke-width="2" d="M166.475,-215.876C148.415,-206.512 125.855,-194.814 106.549,-184.803"/>
<polygon fill="grey" stroke="grey" stroke-width="2" points="108.14,-181.686 97.6517,-180.19 104.918,-187.9 108.14,-181.686"/>
</g>
<!-- 13&#45;&gt;6 -->
<g id="edge12" class="edge"><title>13&#45;&gt;6</title>
<path fill="none" stroke="grey" stroke-width="2" d="M233.624,-219.052C236.609,-217.971 239.597,-216.938 242.5,-216 301.552,-196.928 319.73,-196.152 384.131,-180.063"/>
<polygon fill="grey" stroke="grey" stroke-width="2" points="385.141,-183.418 393.978,-177.574 383.425,-176.631 385.141,-183.418"/>
</g>
<!-- 14&#45;&gt;3 -->
<g id="edge9" class="edge"><title>14&#45;&gt;3</title>
<path fill="none" stroke="grey" stroke-width="2" d="M105.904,-215.697C99.3773,-207.389 91.432,-197.277 84.2534,-188.141"/>
<polygon fill="grey" stroke="grey" stroke-width="2" points="86.8695,-185.805 77.9391,-180.104 81.3653,-190.13 86.8695,-185.805"/>
</g>
<!-- 15 -->
<g id="node16" class="node"><title>15</title>
<path fill="none" stroke="#b6d856" stroke-width="2" d="M243,-324C243,-324 156,-324 156,-324 150,-324 144,-318 144,-312 144,-312 144,-300 144,-300 144,-294 150,-288 156,-288 156,-288 243,-288 243,-288 249,-288 255,-294 255,-300 255,-300 255,-312 255,-312 255,-318 249,-324 243,-324"/>
<text text-anchor="middle" x="199.5" y="-303.5" font-family="sans" font-size="10.00">get_knownGene_gtf</text>
</g>
<!-- 15&#45;&gt;13 -->
<g id="edge18" class="edge"><title>15&#45;&gt;13</title>
<path fill="none" stroke="grey" stroke-width="2" d="M199.5,-287.697C199.5,-279.983 199.5,-270.712 199.5,-262.112"/>
<polygon fill="grey" stroke="grey" stroke-width="2" points="203,-262.104 199.5,-252.104 196,-262.104 203,-262.104"/>
</g>
</g>
</svg>
