<?xml version="1.0" encoding="UTF-8" standalone="no"?>
<!DOCTYPE svg PUBLIC "-//W3C//DTD SVG 1.1//EN"
 "http://www.w3.org/Graphics/SVG/1.1/DTD/svg11.dtd">
<!-- Generated by graphviz version 2.38.0 (20140413.2041)
 -->
<!-- Title: snakemake_dag Pages: 1 -->
<svg width="908pt" height="404pt"
 viewBox="0.00 0.00 908.00 404.00" xmlns="http://www.w3.org/2000/svg" xmlns:xlink="http://www.w3.org/1999/xlink">
<g id="graph0" class="graph" transform="scale(1 1) rotate(0) translate(4 400)">
<title>snakemake_dag</title>
<polygon fill="white" stroke="none" points="-4,4 -4,-400 904,-400 904,4 -4,4"/>
<!-- 0 -->
<g id="node1" class="node"><title>0</title>
<path fill="none" stroke="#d86e56" stroke-width="2" d="M339.5,-252C339.5,-252 210.5,-252 210.5,-252 204.5,-252 198.5,-246 198.5,-240 198.5,-240 198.5,-228 198.5,-228 198.5,-222 204.5,-216 210.5,-216 210.5,-216 339.5,-216 339.5,-216 345.5,-216 351.5,-222 351.5,-228 351.5,-228 351.5,-240 351.5,-240 351.5,-246 345.5,-252 339.5,-252"/>
<text text-anchor="middle" x="275" y="-231.5" font-family="sans" font-size="10.00">get_gencode_annotation_gff</text>
</g>
<!-- 7 -->
<g id="node8" class="node"><title>7</title>
<path fill="none" stroke="#a7d856" stroke-width="2" d="M421.5,-180C421.5,-180 332.5,-180 332.5,-180 326.5,-180 320.5,-174 320.5,-168 320.5,-168 320.5,-156 320.5,-156 320.5,-150 326.5,-144 332.5,-144 332.5,-144 421.5,-144 421.5,-144 427.5,-144 433.5,-150 433.5,-156 433.5,-156 433.5,-168 433.5,-168 433.5,-174 427.5,-180 421.5,-180"/>
<text text-anchor="middle" x="377" y="-159.5" font-family="sans" font-size="10.00">build_tophat2_index</text>
</g>
<!-- 0&#45;&gt;7 -->
<g id="edge5" class="edge"><title>0&#45;&gt;7</title>
<path fill="none" stroke="grey" stroke-width="2" d="M299.952,-215.876C313.042,-206.893 329.26,-195.763 343.436,-186.034"/>
<polygon fill="grey" stroke="grey" stroke-width="2" points="345.687,-188.734 351.952,-180.19 341.726,-182.962 345.687,-188.734"/>
</g>
<!-- 9 -->
<g id="node10" class="node"><title>9</title>
<path fill="none" stroke="#70d856" stroke-width="2" d="M177.5,-180C177.5,-180 72.5,-180 72.5,-180 66.5,-180 60.5,-174 60.5,-168 60.5,-168 60.5,-156 60.5,-156 60.5,-150 66.5,-144 72.5,-144 72.5,-144 177.5,-144 177.5,-144 183.5,-144 189.5,-150 189.5,-156 189.5,-156 189.5,-168 189.5,-168 189.5,-174 183.5,-180 177.5,-180"/>
<text text-anchor="middle" x="125" y="-159.5" font-family="sans" font-size="10.00">extract_transcript_seqs</text>
</g>
<!-- 0&#45;&gt;9 -->
<g id="edge17" class="edge"><title>0&#45;&gt;9</title>
<path fill="none" stroke="grey" stroke-width="2" d="M238.306,-215.876C217.982,-206.392 192.529,-194.513 170.898,-184.419"/>
<polygon fill="grey" stroke="grey" stroke-width="2" points="172.117,-181.126 161.575,-180.068 169.157,-187.469 172.117,-181.126"/>
</g>
<!-- 12 -->
<g id="node13" class="node"><title>12</title>
<path fill="none" stroke="#56d8d8" stroke-width="2" d="M290,-180C290,-180 220,-180 220,-180 214,-180 208,-174 208,-168 208,-168 208,-156 208,-156 208,-150 214,-144 220,-144 220,-144 290,-144 290,-144 296,-144 302,-150 302,-156 302,-156 302,-168 302,-168 302,-174 296,-180 290,-180"/>
<text text-anchor="middle" x="255" y="-159.5" font-family="sans" font-size="10.00">build_star_index</text>
</g>
<!-- 0&#45;&gt;12 -->
<g id="edge21" class="edge"><title>0&#45;&gt;12</title>
<path fill="none" stroke="grey" stroke-width="2" d="M270.056,-215.697C267.828,-207.898 265.145,-198.509 262.665,-189.829"/>
<polygon fill="grey" stroke="grey" stroke-width="2" points="266,-188.758 259.887,-180.104 259.269,-190.681 266,-188.758"/>
</g>
<!-- 1 -->
<g id="node2" class="node"><title>1</title>
<path fill="none" stroke="#56c1d8" stroke-width="2" d="M44,-252C44,-252 12,-252 12,-252 6,-252 0,-246 0,-240 0,-240 0,-228 0,-228 0,-222 6,-216 12,-216 12,-216 44,-216 44,-216 50,-216 56,-222 56,-228 56,-228 56,-240 56,-240 56,-246 50,-252 44,-252"/>
<text text-anchor="middle" x="28" y="-231.5" font-family="sans" font-size="10.00">index_fa</text>
</g>
<!-- 1&#45;&gt;9 -->
<g id="edge16" class="edge"><title>1&#45;&gt;9</title>
<path fill="none" stroke="grey" stroke-width="2" d="M51.9775,-215.697C64.3113,-206.796 79.5164,-195.823 92.853,-186.199"/>
<polygon fill="grey" stroke="grey" stroke-width="2" points="95.2374,-188.794 101.298,-180.104 91.1411,-183.118 95.2374,-188.794"/>
</g>
<!-- 2 -->
<g id="node3" class="node"><title>2</title>
<path fill="none" stroke="#d88d56" stroke-width="2" d="M497,-324C497,-324 431,-324 431,-324 425,-324 419,-318 419,-312 419,-312 419,-300 419,-300 419,-294 425,-288 431,-288 431,-288 497,-288 497,-288 503,-288 509,-294 509,-300 509,-300 509,-312 509,-312 509,-318 503,-324 497,-324"/>
<text text-anchor="middle" x="464" y="-303.5" font-family="sans" font-size="10.00">twoBit_to_fasta</text>
</g>
<!-- 2&#45;&gt;1 -->
<g id="edge1" class="edge"><title>2&#45;&gt;1</title>
<path fill="none" stroke="grey" stroke-width="2" d="M418.972,-302.62C345.035,-297.899 193.755,-284.81 70,-252 68.5743,-251.622 67.1322,-251.208 65.6836,-250.766"/>
<polygon fill="grey" stroke="grey" stroke-width="2" points="66.7318,-247.425 56.1373,-247.509 64.4716,-254.051 66.7318,-247.425"/>
</g>
<!-- 3 -->
<g id="node4" class="node"><title>3</title>
<path fill="none" stroke="#d8a456" stroke-width="2" d="M508,-252C508,-252 420,-252 420,-252 414,-252 408,-246 408,-240 408,-240 408,-228 408,-228 408,-222 414,-216 420,-216 420,-216 508,-216 508,-216 514,-216 520,-222 520,-228 520,-228 520,-240 520,-240 520,-246 514,-252 508,-252"/>
<text text-anchor="middle" x="464" y="-231.5" font-family="sans" font-size="10.00">build_bowtie2_index</text>
</g>
<!-- 2&#45;&gt;3 -->
<g id="edge3" class="edge"><title>2&#45;&gt;3</title>
<path fill="none" stroke="grey" stroke-width="2" d="M464,-287.697C464,-279.983 464,-270.712 464,-262.112"/>
<polygon fill="grey" stroke="grey" stroke-width="2" points="467.5,-262.104 464,-252.104 460.5,-262.104 467.5,-262.104"/>
</g>
<!-- 2&#45;&gt;9 -->
<g id="edge19" class="edge"><title>2&#45;&gt;9</title>
<path fill="none" stroke="grey" stroke-width="2" d="M418.915,-301.642C326.692,-294.315 123.421,-275.638 103,-252 87.9093,-234.532 96.9782,-208.291 107.676,-188.824"/>
<polygon fill="grey" stroke="grey" stroke-width="2" points="110.728,-190.539 112.792,-180.147 104.698,-186.984 110.728,-190.539"/>
</g>
<!-- 11 -->
<g id="node12" class="node"><title>11</title>
<path fill="none" stroke="#59d856" stroke-width="2" d="M888,-108C888,-108 800,-108 800,-108 794,-108 788,-102 788,-96 788,-96 788,-84 788,-84 788,-78 794,-72 800,-72 800,-72 888,-72 888,-72 894,-72 900,-78 900,-84 900,-84 900,-96 900,-96 900,-102 894,-108 888,-108"/>
<text text-anchor="middle" x="844" y="-87.5" font-family="sans" font-size="10.00">build_bowtie1_index</text>
</g>
<!-- 2&#45;&gt;11 -->
<g id="edge20" class="edge"><title>2&#45;&gt;11</title>
<path fill="none" stroke="grey" stroke-width="2" d="M509.085,-301.839C583.699,-294.161 732.858,-268.059 816,-180 831.763,-163.305 838.654,-137.811 841.666,-118.382"/>
<polygon fill="grey" stroke="grey" stroke-width="2" points="845.157,-118.672 842.971,-108.305 838.215,-117.773 845.157,-118.672"/>
</g>
<!-- 2&#45;&gt;12 -->
<g id="edge23" class="edge"><title>2&#45;&gt;12</title>
<path fill="none" stroke="grey" stroke-width="2" d="M442.355,-287.9C429.58,-277.672 413.186,-264.311 399,-252 381.184,-236.539 379.383,-229.444 360,-216 342.783,-204.058 322.498,-193.174 304.371,-184.419"/>
<polygon fill="grey" stroke="grey" stroke-width="2" points="305.652,-181.153 295.116,-180.04 302.659,-187.48 305.652,-181.153"/>
</g>
<!-- 13 -->
<g id="node14" class="node"><title>13</title>
<path fill="none" stroke="#56d88a" stroke-width="2" d="M585.5,-108C585.5,-108 500.5,-108 500.5,-108 494.5,-108 488.5,-102 488.5,-96 488.5,-96 488.5,-84 488.5,-84 488.5,-78 494.5,-72 500.5,-72 500.5,-72 585.5,-72 585.5,-72 591.5,-72 597.5,-78 597.5,-84 597.5,-84 597.5,-96 597.5,-96 597.5,-102 591.5,-108 585.5,-108"/>
<text text-anchor="middle" x="543" y="-87.5" font-family="sans" font-size="10.00">build_bbmap_index</text>
</g>
<!-- 2&#45;&gt;13 -->
<g id="edge24" class="edge"><title>2&#45;&gt;13</title>
<path fill="none" stroke="grey" stroke-width="2" d="M494.306,-287.946C507.255,-278.998 521.168,-266.8 529,-252 551.5,-209.484 550.142,-151.705 546.791,-118.175"/>
<polygon fill="grey" stroke="grey" stroke-width="2" points="550.263,-117.733 545.66,-108.191 543.308,-118.521 550.263,-117.733"/>
</g>
<!-- 16 -->
<g id="node17" class="node"><title>16</title>
<path fill="none" stroke="#5673d8" stroke-width="2" d="M795,-180C795,-180 725,-180 725,-180 719,-180 713,-174 713,-168 713,-168 713,-156 713,-156 713,-150 719,-144 725,-144 725,-144 795,-144 795,-144 801,-144 807,-150 807,-156 807,-156 807,-168 807,-168 807,-174 801,-180 795,-180"/>
<text text-anchor="middle" x="760" y="-159.5" font-family="sans" font-size="10.00">build_bwa_index</text>
</g>
<!-- 2&#45;&gt;16 -->
<g id="edge27" class="edge"><title>2&#45;&gt;16</title>
<path fill="none" stroke="grey" stroke-width="2" d="M499.705,-287.871C553.708,-261.964 656.102,-212.843 715.089,-184.545"/>
<polygon fill="grey" stroke="grey" stroke-width="2" points="716.667,-187.67 724.169,-180.189 713.639,-181.359 716.667,-187.67"/>
</g>
<!-- 3&#45;&gt;7 -->
<g id="edge7" class="edge"><title>3&#45;&gt;7</title>
<path fill="none" stroke="grey" stroke-width="2" d="M442.494,-215.697C431.537,-206.881 418.054,-196.032 406.175,-186.474"/>
<polygon fill="grey" stroke="grey" stroke-width="2" points="408.244,-183.646 398.258,-180.104 403.855,-189.1 408.244,-183.646"/>
</g>
<!-- 8 -->
<g id="node9" class="node"><title>8</title>
<path fill="none" stroke="#56d8a2" stroke-width="2" d="M516,-36C516,-36 486,-36 486,-36 480,-36 474,-30 474,-24 474,-24 474,-12 474,-12 474,-6 480,-0 486,-0 486,-0 516,-0 516,-0 522,-0 528,-6 528,-12 528,-12 528,-24 528,-24 528,-30 522,-36 516,-36"/>
<text text-anchor="middle" x="501" y="-15.5" font-family="sans" font-size="10.00">all</text>
</g>
<!-- 3&#45;&gt;8 -->
<g id="edge8" class="edge"><title>3&#45;&gt;8</title>
<path fill="none" stroke="grey" stroke-width="2" d="M463.923,-215.798C464.159,-186.041 466.292,-123.223 479,-72 481.207,-63.1041 484.669,-53.7571 488.199,-45.4322"/>
<polygon fill="grey" stroke="grey" stroke-width="2" points="491.432,-46.7762 492.303,-36.2173 485.037,-43.9283 491.432,-46.7762"/>
</g>
<!-- 4 -->
<g id="node5" class="node"><title>4</title>
<path fill="none" stroke="#568ad8" stroke-width="2" d="M168,-252C168,-252 124,-252 124,-252 118,-252 112,-246 112,-240 112,-240 112,-228 112,-228 112,-222 118,-216 124,-216 124,-216 168,-216 168,-216 174,-216 180,-222 180,-228 180,-228 180,-240 180,-240 180,-246 174,-252 168,-252"/>
<text text-anchor="middle" x="146" y="-231.5" font-family="sans" font-size="10.00">gtf_to_gff3</text>
</g>
<!-- 4&#45;&gt;7 -->
<g id="edge6" class="edge"><title>4&#45;&gt;7</title>
<path fill="none" stroke="grey" stroke-width="2" d="M180.151,-219.136C183.13,-218.037 186.11,-216.976 189,-216 211.552,-208.385 265.904,-193.184 310.398,-181.007"/>
<polygon fill="grey" stroke="grey" stroke-width="2" points="311.581,-184.312 320.306,-178.301 309.737,-177.559 311.581,-184.312"/>
</g>
<!-- 4&#45;&gt;9 -->
<g id="edge18" class="edge"><title>4&#45;&gt;9</title>
<path fill="none" stroke="grey" stroke-width="2" d="M140.809,-215.697C138.469,-207.898 135.653,-198.509 133.049,-189.829"/>
<polygon fill="grey" stroke="grey" stroke-width="2" points="136.357,-188.677 130.131,-180.104 129.652,-190.688 136.357,-188.677"/>
</g>
<!-- 4&#45;&gt;12 -->
<g id="edge22" class="edge"><title>4&#45;&gt;12</title>
<path fill="none" stroke="grey" stroke-width="2" d="M172.664,-215.876C186.784,-206.808 204.311,-195.552 219.561,-185.759"/>
<polygon fill="grey" stroke="grey" stroke-width="2" points="221.71,-188.538 228.233,-180.19 217.927,-182.648 221.71,-188.538"/>
</g>
<!-- 5 -->
<g id="node6" class="node"><title>5</title>
<path fill="none" stroke="#d8bc56" stroke-width="2" d="M683,-180C683,-180 591,-180 591,-180 585,-180 579,-174 579,-168 579,-168 579,-156 579,-156 579,-150 585,-144 591,-144 591,-144 683,-144 683,-144 689,-144 695,-150 695,-156 695,-156 695,-168 695,-168 695,-174 689,-180 683,-180"/>
<text text-anchor="middle" x="637" y="-159.5" font-family="sans" font-size="10.00">get_hisat2_index_tar</text>
</g>
<!-- 14 -->
<g id="node15" class="node"><title>14</title>
<path fill="none" stroke="#56a2d8" stroke-width="2" d="M720,-108C720,-108 628,-108 628,-108 622,-108 616,-102 616,-96 616,-96 616,-84 616,-84 616,-78 622,-72 628,-72 628,-72 720,-72 720,-72 726,-72 732,-78 732,-84 732,-84 732,-96 732,-96 732,-102 726,-108 720,-108"/>
<text text-anchor="middle" x="674" y="-87.5" font-family="sans" font-size="10.00">unpack_hisat2_index</text>
</g>
<!-- 5&#45;&gt;14 -->
<g id="edge25" class="edge"><title>5&#45;&gt;14</title>
<path fill="none" stroke="grey" stroke-width="2" d="M646.146,-143.697C650.403,-135.644 655.556,-125.894 660.266,-116.982"/>
<polygon fill="grey" stroke="grey" stroke-width="2" points="663.38,-118.581 664.959,-108.104 657.192,-115.31 663.38,-118.581"/>
</g>
<!-- 6 -->
<g id="node7" class="node"><title>6</title>
<path fill="none" stroke="#56d8c1" stroke-width="2" d="M530,-396C530,-396 398,-396 398,-396 392,-396 386,-390 386,-384 386,-384 386,-372 386,-372 386,-366 392,-360 398,-360 398,-360 530,-360 530,-360 536,-360 542,-366 542,-372 542,-372 542,-384 542,-384 542,-390 536,-396 530,-396"/>
<text text-anchor="middle" x="464" y="-375.5" font-family="sans" font-size="10.00">get_hg38_analysisSet_twoBit</text>
</g>
<!-- 6&#45;&gt;2 -->
<g id="edge2" class="edge"><title>6&#45;&gt;2</title>
<path fill="none" stroke="grey" stroke-width="2" d="M464,-359.697C464,-351.983 464,-342.712 464,-334.112"/>
<polygon fill="grey" stroke="grey" stroke-width="2" points="467.5,-334.104 464,-324.104 460.5,-334.104 467.5,-334.104"/>
</g>
<!-- 7&#45;&gt;8 -->
<g id="edge9" class="edge"><title>7&#45;&gt;8</title>
<path fill="none" stroke="grey" stroke-width="2" d="M389.272,-143.685C402.556,-125.309 424.708,-95.7113 446,-72 454.86,-62.1336 465.19,-51.8882 474.49,-43.0654"/>
<polygon fill="grey" stroke="grey" stroke-width="2" points="477.098,-45.4183 482.005,-36.0283 472.314,-40.3087 477.098,-45.4183"/>
</g>
<!-- 15 -->
<g id="node16" class="node"><title>15</title>
<path fill="none" stroke="#d6d856" stroke-width="2" d="M223,-108C223,-108 137,-108 137,-108 131,-108 125,-102 125,-96 125,-96 125,-84 125,-84 125,-78 131,-72 137,-72 137,-72 223,-72 223,-72 229,-72 235,-78 235,-84 235,-84 235,-96 235,-96 235,-102 229,-108 223,-108"/>
<text text-anchor="middle" x="180" y="-87.5" font-family="sans" font-size="10.00">build_salmon_index</text>
</g>
<!-- 9&#45;&gt;15 -->
<g id="edge26" class="edge"><title>9&#45;&gt;15</title>
<path fill="none" stroke="grey" stroke-width="2" d="M138.596,-143.697C145.123,-135.389 153.068,-125.277 160.247,-116.141"/>
<polygon fill="grey" stroke="grey" stroke-width="2" points="163.135,-118.13 166.561,-108.104 157.631,-113.805 163.135,-118.13"/>
</g>
<!-- 10 -->
<g id="node11" class="node"><title>10</title>
<path fill="none" stroke="#56d873" stroke-width="2" d="M189.5,-324C189.5,-324 102.5,-324 102.5,-324 96.5,-324 90.5,-318 90.5,-312 90.5,-312 90.5,-300 90.5,-300 90.5,-294 96.5,-288 102.5,-288 102.5,-288 189.5,-288 189.5,-288 195.5,-288 201.5,-294 201.5,-300 201.5,-300 201.5,-312 201.5,-312 201.5,-318 195.5,-324 189.5,-324"/>
<text text-anchor="middle" x="146" y="-303.5" font-family="sans" font-size="10.00">get_knownGene_gtf</text>
</g>
<!-- 10&#45;&gt;4 -->
<g id="edge4" class="edge"><title>10&#45;&gt;4</title>
<path fill="none" stroke="grey" stroke-width="2" d="M146,-287.697C146,-279.983 146,-270.712 146,-262.112"/>
<polygon fill="grey" stroke="grey" stroke-width="2" points="149.5,-262.104 146,-252.104 142.5,-262.104 149.5,-262.104"/>
</g>
<!-- 11&#45;&gt;8 -->
<g id="edge10" class="edge"><title>11&#45;&gt;8</title>
<path fill="none" stroke="grey" stroke-width="2" d="M787.889,-75.1301C783.197,-74.0442 778.521,-72.9872 774,-72 689.98,-53.6522 590.712,-35.1779 538.093,-25.636"/>
<polygon fill="grey" stroke="grey" stroke-width="2" points="538.673,-22.1841 528.21,-23.8494 537.428,-29.0725 538.673,-22.1841"/>
</g>
<!-- 12&#45;&gt;8 -->
<g id="edge11" class="edge"><title>12&#45;&gt;8</title>
<path fill="none" stroke="grey" stroke-width="2" d="M284.673,-143.871C329.933,-117.746 416.091,-68.0123 464.908,-39.8336"/>
<polygon fill="grey" stroke="grey" stroke-width="2" points="466.949,-42.6966 473.86,-34.666 463.45,-36.6341 466.949,-42.6966"/>
</g>
<!-- 13&#45;&gt;8 -->
<g id="edge12" class="edge"><title>13&#45;&gt;8</title>
<path fill="none" stroke="grey" stroke-width="2" d="M532.618,-71.6966C527.735,-63.5589 521.813,-53.689 516.421,-44.7013"/>
<polygon fill="grey" stroke="grey" stroke-width="2" points="519.409,-42.8785 511.263,-36.1043 513.406,-46.48 519.409,-42.8785"/>
</g>
<!-- 14&#45;&gt;8 -->
<g id="edge13" class="edge"><title>14&#45;&gt;8</title>
<path fill="none" stroke="grey" stroke-width="2" d="M631.679,-71.8761C602.777,-60.1814 564.879,-44.8469 537.342,-33.705"/>
<polygon fill="grey" stroke="grey" stroke-width="2" points="538.649,-30.458 528.066,-29.9516 536.023,-36.947 538.649,-30.458"/>
</g>
<!-- 15&#45;&gt;8 -->
<g id="edge14" class="edge"><title>15&#45;&gt;8</title>
<path fill="none" stroke="grey" stroke-width="2" d="M235.182,-76.9666C300.489,-62.7252 407.447,-39.4009 463.714,-27.1309"/>
<polygon fill="grey" stroke="grey" stroke-width="2" points="464.584,-30.5234 473.609,-24.9731 463.093,-23.6842 464.584,-30.5234"/>
</g>
<!-- 16&#45;&gt;8 -->
<g id="edge15" class="edge"><title>16&#45;&gt;8</title>
<path fill="none" stroke="grey" stroke-width="2" d="M761.427,-143.714C762.068,-123.665 759.814,-90.9468 741,-72 712.991,-43.7937 598.629,-28.571 538.443,-22.3735"/>
<polygon fill="grey" stroke="grey" stroke-width="2" points="538.517,-18.8635 528.219,-21.3539 537.822,-25.829 538.517,-18.8635"/>
</g>
</g>
</svg>
