<?xml version="1.0" encoding="UTF-8" standalone="no"?>
<!DOCTYPE svg PUBLIC "-//W3C//DTD SVG 1.1//EN"
 "http://www.w3.org/Graphics/SVG/1.1/DTD/svg11.dtd">
<!-- Generated by graphviz version 2.38.0 (20140413.2041)
 -->
<!-- Title: snakemake_dag Pages: 1 -->
<svg width="1403pt" height="332pt"
 viewBox="0.00 0.00 1403.00 332.00" xmlns="http://www.w3.org/2000/svg" xmlns:xlink="http://www.w3.org/1999/xlink">
<g id="graph0" class="graph" transform="scale(1 1) rotate(0) translate(4 328)">
<title>snakemake_dag</title>
<polygon fill="white" stroke="none" points="-4,4 -4,-328 1399,-328 1399,4 -4,4"/>
<!-- 0 -->
<g id="node1" class="node"><title>0</title>
<path fill="none" stroke="#56a2d8" stroke-width="2" d="M581.5,-180C581.5,-180 496.5,-180 496.5,-180 490.5,-180 484.5,-174 484.5,-168 484.5,-168 484.5,-156 484.5,-156 484.5,-150 490.5,-144 496.5,-144 496.5,-144 581.5,-144 581.5,-144 587.5,-144 593.5,-150 593.5,-156 593.5,-156 593.5,-168 593.5,-168 593.5,-174 587.5,-180 581.5,-180"/>
<text text-anchor="middle" x="539" y="-159.5" font-family="sans" font-size="10.00">build_bbmap_index</text>
</g>
<!-- 1 -->
<g id="node2" class="node"><title>1</title>
<path fill="none" stroke="#56d88a" stroke-width="2" d="M690.5,-108C690.5,-108 601.5,-108 601.5,-108 595.5,-108 589.5,-102 589.5,-96 589.5,-96 589.5,-84 589.5,-84 589.5,-78 595.5,-72 601.5,-72 601.5,-72 690.5,-72 690.5,-72 696.5,-72 702.5,-78 702.5,-84 702.5,-84 702.5,-96 702.5,-96 702.5,-102 696.5,-108 690.5,-108"/>
<text text-anchor="middle" x="646" y="-87.5" font-family="sans" font-size="10.00">build_tophat2_index</text>
</g>
<!-- 2 -->
<g id="node3" class="node"><title>2</title>
<path fill="none" stroke="#ced856" stroke-width="2" d="M1141,-252C1141,-252 1049,-252 1049,-252 1043,-252 1037,-246 1037,-240 1037,-240 1037,-228 1037,-228 1037,-222 1043,-216 1049,-216 1049,-216 1141,-216 1141,-216 1147,-216 1153,-222 1153,-228 1153,-228 1153,-240 1153,-240 1153,-246 1147,-252 1141,-252"/>
<text text-anchor="middle" x="1095" y="-231.5" font-family="sans" font-size="10.00">unpack_hisat2_index</text>
</g>
<!-- 3 -->
<g id="node4" class="node"><title>3</title>
<path fill="none" stroke="#d85656" stroke-width="2" d="M847.5,-180C847.5,-180 710.5,-180 710.5,-180 704.5,-180 698.5,-174 698.5,-168 698.5,-168 698.5,-156 698.5,-156 698.5,-150 704.5,-144 710.5,-144 710.5,-144 847.5,-144 847.5,-144 853.5,-144 859.5,-150 859.5,-156 859.5,-156 859.5,-168 859.5,-168 859.5,-174 853.5,-180 847.5,-180"/>
<text text-anchor="middle" x="779" y="-159.5" font-family="sans" font-size="10.00">fix_ensembl_annot_chrom_ids</text>
</g>
<!-- 3&#45;&gt;1 -->
<g id="edge4" class="edge"><title>3&#45;&gt;1</title>
<path fill="none" stroke="grey" stroke-width="2" d="M746.465,-143.876C728.753,-134.554 706.647,-122.919 687.684,-112.939"/>
<polygon fill="grey" stroke="grey" stroke-width="2" points="689.14,-109.75 678.661,-108.19 685.88,-115.944 689.14,-109.75"/>
</g>
<!-- 6 -->
<g id="node7" class="node"><title>6</title>
<path fill="none" stroke="#61d856" stroke-width="2" d="M814,-108C814,-108 744,-108 744,-108 738,-108 732,-102 732,-96 732,-96 732,-84 732,-84 732,-78 738,-72 744,-72 744,-72 814,-72 814,-72 820,-72 826,-78 826,-84 826,-84 826,-96 826,-96 826,-102 820,-108 814,-108"/>
<text text-anchor="middle" x="779" y="-87.5" font-family="sans" font-size="10.00">build_star_index</text>
</g>
<!-- 3&#45;&gt;6 -->
<g id="edge11" class="edge"><title>3&#45;&gt;6</title>
<path fill="none" stroke="grey" stroke-width="2" d="M779,-143.697C779,-135.983 779,-126.712 779,-118.112"/>
<polygon fill="grey" stroke="grey" stroke-width="2" points="782.5,-118.104 779,-108.104 775.5,-118.104 782.5,-118.104"/>
</g>
<!-- 19 -->
<g id="node20" class="node"><title>19</title>
<path fill="none" stroke="#afd856" stroke-width="2" d="M347.5,-108C347.5,-108 242.5,-108 242.5,-108 236.5,-108 230.5,-102 230.5,-96 230.5,-96 230.5,-84 230.5,-84 230.5,-78 236.5,-72 242.5,-72 242.5,-72 347.5,-72 347.5,-72 353.5,-72 359.5,-78 359.5,-84 359.5,-84 359.5,-96 359.5,-96 359.5,-102 353.5,-108 347.5,-108"/>
<text text-anchor="middle" x="295" y="-87.5" font-family="sans" font-size="10.00">extract_transcript_seqs</text>
</g>
<!-- 3&#45;&gt;19 -->
<g id="edge22" class="edge"><title>3&#45;&gt;19</title>
<path fill="none" stroke="grey" stroke-width="2" d="M698.082,-145.506C695.018,-144.986 691.983,-144.482 689,-144 578.31,-126.114 449.439,-109.585 370.038,-99.8937"/>
<polygon fill="grey" stroke="grey" stroke-width="2" points="369.998,-96.3631 359.648,-98.6302 369.153,-103.312 369.998,-96.3631"/>
</g>
<!-- 4 -->
<g id="node5" class="node"><title>4</title>
<path fill="none" stroke="#9fd856" stroke-width="2" d="M194,-180C194,-180 124,-180 124,-180 118,-180 112,-174 112,-168 112,-168 112,-156 112,-156 112,-150 118,-144 124,-144 124,-144 194,-144 194,-144 200,-144 206,-150 206,-156 206,-156 206,-168 206,-168 206,-174 200,-180 194,-180"/>
<text text-anchor="middle" x="159" y="-159.5" font-family="sans" font-size="10.00">build_bwa_index</text>
</g>
<!-- 5 -->
<g id="node6" class="node"><title>5</title>
<path fill="none" stroke="#d87556" stroke-width="2" d="M1383,-324C1383,-324 1183,-324 1183,-324 1177,-324 1171,-318 1171,-312 1171,-312 1171,-300 1171,-300 1171,-294 1177,-288 1183,-288 1183,-288 1383,-288 1383,-288 1389,-288 1395,-294 1395,-300 1395,-300 1395,-312 1395,-312 1395,-318 1389,-324 1383,-324"/>
<text text-anchor="middle" x="1283" y="-303.5" font-family="sans" font-size="10.00">make_salmon_genemap_from_knownGene</text>
</g>
<!-- 7 -->
<g id="node8" class="node"><title>7</title>
<path fill="none" stroke="#56c1d8" stroke-width="2" d="M454,-180C454,-180 366,-180 366,-180 360,-180 354,-174 354,-168 354,-168 354,-156 354,-156 354,-150 360,-144 366,-144 366,-144 454,-144 454,-144 460,-144 466,-150 466,-156 466,-156 466,-168 466,-168 466,-174 460,-180 454,-180"/>
<text text-anchor="middle" x="410" y="-159.5" font-family="sans" font-size="10.00">build_bowtie1_index</text>
</g>
<!-- 8 -->
<g id="node9" class="node"><title>8</title>
<path fill="none" stroke="#5692d8" stroke-width="2" d="M338,-36C338,-36 252,-36 252,-36 246,-36 240,-30 240,-24 240,-24 240,-12 240,-12 240,-6 246,-0 252,-0 252,-0 338,-0 338,-0 344,-0 350,-6 350,-12 350,-12 350,-24 350,-24 350,-30 344,-36 338,-36"/>
<text text-anchor="middle" x="295" y="-15.5" font-family="sans" font-size="10.00">build_salmon_index</text>
</g>
<!-- 9 -->
<g id="node10" class="node"><title>9</title>
<path fill="none" stroke="#d89556" stroke-width="2" d="M1066.5,-108C1066.5,-108 881.5,-108 881.5,-108 875.5,-108 869.5,-102 869.5,-96 869.5,-96 869.5,-84 869.5,-84 869.5,-78 875.5,-72 881.5,-72 881.5,-72 1066.5,-72 1066.5,-72 1072.5,-72 1078.5,-78 1078.5,-84 1078.5,-84 1078.5,-96 1078.5,-96 1078.5,-102 1072.5,-108 1066.5,-108"/>
<text text-anchor="middle" x="974" y="-87.5" font-family="sans" font-size="10.00">make_salmon_genemap_from_ensembl</text>
</g>
<!-- 10 -->
<g id="node11" class="node"><title>10</title>
<path fill="none" stroke="#d8a456" stroke-width="2" d="M680.5,-252C680.5,-252 593.5,-252 593.5,-252 587.5,-252 581.5,-246 581.5,-240 581.5,-240 581.5,-228 581.5,-228 581.5,-222 587.5,-216 593.5,-216 593.5,-216 680.5,-216 680.5,-216 686.5,-216 692.5,-222 692.5,-228 692.5,-228 692.5,-240 692.5,-240 692.5,-246 686.5,-252 680.5,-252"/>
<text text-anchor="middle" x="637" y="-231.5" font-family="sans" font-size="10.00">get_knownGene_gtf</text>
</g>
<!-- 15 -->
<g id="node16" class="node"><title>15</title>
<path fill="none" stroke="#56d8a9" stroke-width="2" d="M668,-180C668,-180 624,-180 624,-180 618,-180 612,-174 612,-168 612,-168 612,-156 612,-156 612,-150 618,-144 624,-144 624,-144 668,-144 668,-144 674,-144 680,-150 680,-156 680,-156 680,-168 680,-168 680,-174 674,-180 668,-180"/>
<text text-anchor="middle" x="646" y="-159.5" font-family="sans" font-size="10.00">gtf_to_gff3</text>
</g>
<!-- 10&#45;&gt;15 -->
<g id="edge17" class="edge"><title>10&#45;&gt;15</title>
<path fill="none" stroke="grey" stroke-width="2" d="M639.225,-215.697C640.217,-207.983 641.408,-198.712 642.514,-190.112"/>
<polygon fill="grey" stroke="grey" stroke-width="2" points="645.997,-190.469 643.801,-180.104 639.054,-189.576 645.997,-190.469"/>
</g>
<!-- 11 -->
<g id="node12" class="node"><title>11</title>
<path fill="none" stroke="#d8b456" stroke-width="2" d="M851.5,-252C851.5,-252 722.5,-252 722.5,-252 716.5,-252 710.5,-246 710.5,-240 710.5,-240 710.5,-228 710.5,-228 710.5,-222 716.5,-216 722.5,-216 722.5,-216 851.5,-216 851.5,-216 857.5,-216 863.5,-222 863.5,-228 863.5,-228 863.5,-240 863.5,-240 863.5,-246 857.5,-252 851.5,-252"/>
<text text-anchor="middle" x="787" y="-231.5" font-family="sans" font-size="10.00">get_ensembl_annotation_gff</text>
</g>
<!-- 11&#45;&gt;3 -->
<g id="edge6" class="edge"><title>11&#45;&gt;3</title>
<path fill="none" stroke="grey" stroke-width="2" d="M785.022,-215.697C784.141,-207.983 783.081,-198.712 782.099,-190.112"/>
<polygon fill="grey" stroke="grey" stroke-width="2" points="785.568,-189.642 780.955,-180.104 778.613,-190.437 785.568,-189.642"/>
</g>
<!-- 12 -->
<g id="node13" class="node"><title>12</title>
<path fill="none" stroke="#5673d8" stroke-width="2" d="M1007,-252C1007,-252 915,-252 915,-252 909,-252 903,-246 903,-240 903,-240 903,-228 903,-228 903,-222 909,-216 915,-216 915,-216 1007,-216 1007,-216 1013,-216 1019,-222 1019,-228 1019,-228 1019,-240 1019,-240 1019,-246 1013,-252 1007,-252"/>
<text text-anchor="middle" x="961" y="-231.5" font-family="sans" font-size="10.00">get_chrom_mapping</text>
</g>
<!-- 12&#45;&gt;3 -->
<g id="edge7" class="edge"><title>12&#45;&gt;3</title>
<path fill="none" stroke="grey" stroke-width="2" d="M916.478,-215.876C891.266,-206.179 859.547,-193.98 832.931,-183.743"/>
<polygon fill="grey" stroke="grey" stroke-width="2" points="833.968,-180.391 823.378,-180.068 831.455,-186.925 833.968,-180.391"/>
</g>
<!-- 13 -->
<g id="node14" class="node"><title>13</title>
<path fill="none" stroke="#56d85b" stroke-width="2" d="M1020,-180C1020,-180 928,-180 928,-180 922,-180 916,-174 916,-168 916,-168 916,-156 916,-156 916,-150 922,-144 928,-144 928,-144 1020,-144 1020,-144 1026,-144 1032,-150 1032,-156 1032,-156 1032,-168 1032,-168 1032,-174 1026,-180 1020,-180"/>
<text text-anchor="middle" x="974" y="-159.5" font-family="sans" font-size="10.00">make_ensembl_txdb</text>
</g>
<!-- 12&#45;&gt;13 -->
<g id="edge15" class="edge"><title>12&#45;&gt;13</title>
<path fill="none" stroke="grey" stroke-width="2" d="M964.213,-215.697C965.646,-207.983 967.368,-198.712 968.965,-190.112"/>
<polygon fill="grey" stroke="grey" stroke-width="2" points="972.439,-190.575 970.823,-180.104 965.556,-189.297 972.439,-190.575"/>
</g>
<!-- 13&#45;&gt;9 -->
<g id="edge14" class="edge"><title>13&#45;&gt;9</title>
<path fill="none" stroke="grey" stroke-width="2" d="M974,-143.697C974,-135.983 974,-126.712 974,-118.112"/>
<polygon fill="grey" stroke="grey" stroke-width="2" points="977.5,-118.104 974,-108.104 970.5,-118.104 977.5,-118.104"/>
</g>
<!-- 14 -->
<g id="node15" class="node"><title>14</title>
<path fill="none" stroke="#bed856" stroke-width="2" d="M313,-252C313,-252 247,-252 247,-252 241,-252 235,-246 235,-240 235,-240 235,-228 235,-228 235,-222 241,-216 247,-216 247,-216 313,-216 313,-216 319,-216 325,-222 325,-228 325,-228 325,-240 325,-240 325,-246 319,-252 313,-252"/>
<text text-anchor="middle" x="280" y="-231.5" font-family="sans" font-size="10.00">twoBit_to_fasta</text>
</g>
<!-- 14&#45;&gt;0 -->
<g id="edge1" class="edge"><title>14&#45;&gt;0</title>
<path fill="none" stroke="grey" stroke-width="2" d="M325.114,-220.807C366.383,-209.653 427.903,-193.026 474.385,-180.463"/>
<polygon fill="grey" stroke="grey" stroke-width="2" points="475.322,-183.836 484.063,-177.848 473.496,-177.078 475.322,-183.836"/>
</g>
<!-- 14&#45;&gt;4 -->
<g id="edge8" class="edge"><title>14&#45;&gt;4</title>
<path fill="none" stroke="grey" stroke-width="2" d="M250.4,-215.876C234.433,-206.639 214.54,-195.131 197.394,-185.212"/>
<polygon fill="grey" stroke="grey" stroke-width="2" points="199.122,-182.168 188.714,-180.19 195.617,-188.227 199.122,-182.168"/>
</g>
<!-- 14&#45;&gt;6 -->
<g id="edge10" class="edge"><title>14&#45;&gt;6</title>
<path fill="none" stroke="grey" stroke-width="2" d="M325.467,-230.566C460.299,-223.13 849.719,-200.003 868,-180 878.794,-168.189 875.906,-157.91 868,-144 860.491,-130.789 848.242,-120.525 835.201,-112.701"/>
<polygon fill="grey" stroke="grey" stroke-width="2" points="836.54,-109.442 826.095,-107.669 833.154,-115.569 836.54,-109.442"/>
</g>
<!-- 14&#45;&gt;7 -->
<g id="edge12" class="edge"><title>14&#45;&gt;7</title>
<path fill="none" stroke="grey" stroke-width="2" d="M311.802,-215.876C329.114,-206.554 350.721,-194.919 369.256,-184.939"/>
<polygon fill="grey" stroke="grey" stroke-width="2" points="370.931,-188.012 378.076,-180.19 367.612,-181.849 370.931,-188.012"/>
</g>
<!-- 16 -->
<g id="node17" class="node"><title>16</title>
<path fill="none" stroke="#d8d356" stroke-width="2" d="M324,-180C324,-180 236,-180 236,-180 230,-180 224,-174 224,-168 224,-168 224,-156 224,-156 224,-150 230,-144 236,-144 236,-144 324,-144 324,-144 330,-144 336,-150 336,-156 336,-156 336,-168 336,-168 336,-174 330,-180 324,-180"/>
<text text-anchor="middle" x="280" y="-159.5" font-family="sans" font-size="10.00">build_bowtie2_index</text>
</g>
<!-- 14&#45;&gt;16 -->
<g id="edge18" class="edge"><title>14&#45;&gt;16</title>
<path fill="none" stroke="grey" stroke-width="2" d="M280,-215.697C280,-207.983 280,-198.712 280,-190.112"/>
<polygon fill="grey" stroke="grey" stroke-width="2" points="283.5,-190.104 280,-180.104 276.5,-190.104 283.5,-190.104"/>
</g>
<!-- 18 -->
<g id="node19" class="node"><title>18</title>
<path fill="none" stroke="#d8c356" stroke-width="2" d="M44,-180C44,-180 12,-180 12,-180 6,-180 0,-174 0,-168 0,-168 0,-156 0,-156 0,-150 6,-144 12,-144 12,-144 44,-144 44,-144 50,-144 56,-150 56,-156 56,-156 56,-168 56,-168 56,-174 50,-180 44,-180"/>
<text text-anchor="middle" x="28" y="-159.5" font-family="sans" font-size="10.00">index_fa</text>
</g>
<!-- 14&#45;&gt;18 -->
<g id="edge19" class="edge"><title>14&#45;&gt;18</title>
<path fill="none" stroke="grey" stroke-width="2" d="M234.838,-223.49C191.962,-214.019 125.934,-198.283 70,-180 68.5981,-179.542 67.1762,-179.059 65.7448,-178.559"/>
<polygon fill="grey" stroke="grey" stroke-width="2" points="66.8641,-175.241 56.2708,-175.058 64.4373,-181.807 66.8641,-175.241"/>
</g>
<!-- 14&#45;&gt;19 -->
<g id="edge21" class="edge"><title>14&#45;&gt;19</title>
<path fill="none" stroke="grey" stroke-width="2" d="M234.94,-227.514C170.829,-217.844 65.0273,-193.875 103,-144 117.521,-124.928 172.624,-110.969 220.096,-102.179"/>
<polygon fill="grey" stroke="grey" stroke-width="2" points="220.87,-105.596 230.093,-100.381 219.632,-98.7062 220.87,-105.596"/>
</g>
<!-- 15&#45;&gt;1 -->
<g id="edge2" class="edge"><title>15&#45;&gt;1</title>
<path fill="none" stroke="grey" stroke-width="2" d="M646,-143.697C646,-135.983 646,-126.712 646,-118.112"/>
<polygon fill="grey" stroke="grey" stroke-width="2" points="649.5,-118.104 646,-108.104 642.5,-118.104 649.5,-118.104"/>
</g>
<!-- 15&#45;&gt;6 -->
<g id="edge9" class="edge"><title>15&#45;&gt;6</title>
<path fill="none" stroke="grey" stroke-width="2" d="M678.535,-143.876C696.247,-134.554 718.353,-122.919 737.316,-112.939"/>
<polygon fill="grey" stroke="grey" stroke-width="2" points="739.12,-115.944 746.339,-108.19 735.86,-109.75 739.12,-115.944"/>
</g>
<!-- 15&#45;&gt;19 -->
<g id="edge20" class="edge"><title>15&#45;&gt;19</title>
<path fill="none" stroke="grey" stroke-width="2" d="M611.63,-146.98C608.402,-145.889 605.157,-144.873 602,-144 524.101,-122.456 432.542,-108.004 369.812,-99.7064"/>
<polygon fill="grey" stroke="grey" stroke-width="2" points="369.979,-96.1986 359.61,-98.3775 369.074,-103.14 369.979,-96.1986"/>
</g>
<!-- 16&#45;&gt;1 -->
<g id="edge3" class="edge"><title>16&#45;&gt;1</title>
<path fill="none" stroke="grey" stroke-width="2" d="M336.302,-145.975C339.239,-145.285 342.151,-144.622 345,-144 425.164,-126.49 518.313,-110.795 579.508,-101.111"/>
<polygon fill="grey" stroke="grey" stroke-width="2" points="580.089,-104.563 589.423,-99.5507 579.001,-97.6482 580.089,-104.563"/>
</g>
<!-- 17 -->
<g id="node18" class="node"><title>17</title>
<path fill="none" stroke="#56b1d8" stroke-width="2" d="M346,-324C346,-324 214,-324 214,-324 208,-324 202,-318 202,-312 202,-312 202,-300 202,-300 202,-294 208,-288 214,-288 214,-288 346,-288 346,-288 352,-288 358,-294 358,-300 358,-300 358,-312 358,-312 358,-318 352,-324 346,-324"/>
<text text-anchor="middle" x="280" y="-303.5" font-family="sans" font-size="10.00">get_hg38_analysisSet_twoBit</text>
</g>
<!-- 17&#45;&gt;14 -->
<g id="edge16" class="edge"><title>17&#45;&gt;14</title>
<path fill="none" stroke="grey" stroke-width="2" d="M280,-287.697C280,-279.983 280,-270.712 280,-262.112"/>
<polygon fill="grey" stroke="grey" stroke-width="2" points="283.5,-262.104 280,-252.104 276.5,-262.104 283.5,-262.104"/>
</g>
<!-- 18&#45;&gt;19 -->
<g id="edge23" class="edge"><title>18&#45;&gt;19</title>
<path fill="none" stroke="grey" stroke-width="2" d="M56.2506,-148.88C60.8057,-147.125 65.5023,-145.431 70,-144 119.421,-128.28 176.28,-114.925 220.476,-105.554"/>
<polygon fill="grey" stroke="grey" stroke-width="2" points="221.209,-108.976 230.277,-103.496 219.771,-102.125 221.209,-108.976"/>
</g>
<!-- 19&#45;&gt;8 -->
<g id="edge13" class="edge"><title>19&#45;&gt;8</title>
<path fill="none" stroke="grey" stroke-width="2" d="M295,-71.6966C295,-63.9827 295,-54.7125 295,-46.1124"/>
<polygon fill="grey" stroke="grey" stroke-width="2" points="298.5,-46.1043 295,-36.1043 291.5,-46.1044 298.5,-46.1043"/>
</g>
<!-- 20 -->
<g id="node21" class="node"><title>20</title>
<path fill="none" stroke="#70d856" stroke-width="2" d="M1141,-324C1141,-324 1049,-324 1049,-324 1043,-324 1037,-318 1037,-312 1037,-312 1037,-300 1037,-300 1037,-294 1043,-288 1049,-288 1049,-288 1141,-288 1141,-288 1147,-288 1153,-294 1153,-300 1153,-300 1153,-312 1153,-312 1153,-318 1147,-324 1141,-324"/>
<text text-anchor="middle" x="1095" y="-303.5" font-family="sans" font-size="10.00">get_hisat2_index_tar</text>
</g>
<!-- 20&#45;&gt;2 -->
<g id="edge5" class="edge"><title>20&#45;&gt;2</title>
<path fill="none" stroke="grey" stroke-width="2" d="M1095,-287.697C1095,-279.983 1095,-270.712 1095,-262.112"/>
<polygon fill="grey" stroke="grey" stroke-width="2" points="1098.5,-262.104 1095,-252.104 1091.5,-262.104 1098.5,-262.104"/>
</g>
</g>
</svg>
